<svg xmlns="http://www.w3.org/2000/svg" width="420mm" height="297mm" viewBox="0 0 420 297"><rect width="420" height="297" fill="white"/><rect x="5" y="5" width="410" height="287" fill="none" stroke="#171c20" stroke-width=".3"/><path d="M5.0000,30.0000 L415.0000,30.0000" fill="none" stroke="#171c20" stroke-width="0.25"/><path d="M5.0000,243.0000 L415.0000,243.0000" fill="none" stroke="#171c20" stroke-width="0.25"/><text x="12" y="14" font-family="DejaVu Sans" font-size="5" text-anchor="start" fill="#171c20" font-weight="bold">PLBP-D01-P050</text><text x="408" y="14" font-family="DejaVu Sans" font-size="3" text-anchor="end" fill="#171c20">D01 / DW01 · 01.10.2026</text><text x="12" y="22.0" font-family="DejaVu Sans" font-size="3.6" text-anchor="start" fill="#171c20">E02 примерочная опора блока спасения: крепление к корпусу открыто</text><text x="12" y="250" font-family="DejaVu Sans" font-size="3.2" text-anchor="start" fill="#171c20" font-weight="bold">ПРОЕКТНЫЙ ЧЕРТЁЖ · НОМИНАЛЬНАЯ ГЕОМЕТРИЯ · НЕ ВЫПУЩЕНО В ПРОИЗВОДСТВО</text><text x="12" y="286" font-family="DejaVu Sans" font-size="3" text-anchor="start" fill="#171c20">PLBP-SG1 · Супер ГИРД | A3: 420 × 297 мм | Размеры: мм | Печатать 100%</text><text x="408" y="286" font-family="DejaVu Sans" font-size="3" text-anchor="end" fill="#171c20">Лист 1/1</text><text x="23" y="44" font-family="DejaVu Sans" font-size="2.8" text-anchor="start" fill="#171c20" font-weight="bold">Вид по −Z · X/Y · М 1:2</text><polyline points="104.5000,94.5000 62.5000,94.5000" fill="none" stroke="#889196" stroke-width=".12" stroke-dasharray="1.5 1"/><polyline points="104.5000,94.5000 104.5000,63.5000" fill="none" stroke="#889196" stroke-width=".12" stroke-dasharray="1.5 1"/><polyline points="104.5000,63.5000 62.5000,63.5000" fill="none" stroke="#889196" stroke-width=".12" stroke-dasharray="1.5 1"/><polyline points="62.5000,94.5000 62.5000,63.5000" fill="none" stroke="#889196" stroke-width=".12" stroke-dasharray="1.5 1"/><polyline points="61.5000,95.5000 61.5000,62.5000" fill="none" stroke="#889196" stroke-width=".12" stroke-dasharray="1.5 1"/><polyline points="61.5000,62.5000 105.5000,62.5000" fill="none" stroke="#889196" stroke-width=".12" stroke-dasharray="1.5 1"/><polyline points="105.5000,95.5000 105.5000,62.5000" fill="none" stroke="#889196" stroke-width=".12" stroke-dasharray="1.5 1"/><polyline points="61.5000,95.5000 105.5000,95.5000" fill="none" stroke="#889196" stroke-width=".12" stroke-dasharray="1.5 1"/><polyline points="61.5000,95.5000 61.5000,62.5000" fill="none" stroke="#171c20" stroke-width=".24"/><polyline points="61.5000,62.5000 105.5000,62.5000" fill="none" stroke="#171c20" stroke-width=".24"/><polyline points="61.5000,95.5000 105.5000,95.5000" fill="none" stroke="#171c20" stroke-width=".24"/><polyline points="105.5000,95.5000 105.5000,62.5000" fill="none" stroke="#171c20" stroke-width=".24"/><polyline points="104.5000,94.5000 62.5000,94.5000" fill="none" stroke="#171c20" stroke-width=".24"/><polyline points="104.5000,94.5000 104.5000,63.5000" fill="none" stroke="#171c20" stroke-width=".24"/><polyline points="104.5000,63.5000 62.5000,63.5000" fill="none" stroke="#171c20" stroke-width=".24"/><polyline points="62.5000,94.5000 62.5000,63.5000" fill="none" stroke="#171c20" stroke-width=".24"/><path d="M61.5000,95.5000 L61.5000,100.5000" fill="none" stroke="#171c20" stroke-width="0.15"/><path d="M105.5000,95.5000 L105.5000,100.5000" fill="none" stroke="#171c20" stroke-width="0.15"/><path d="M61.5000,102.5000 L105.5000,102.5000" fill="none" stroke="#171c20" stroke-width="0.18"/><path d="M61.5000,102.5000 L63.5000,101.5000" fill="none" stroke="#171c20" stroke-width="0.18"/><path d="M61.5000,102.5000 L63.5000,103.5000" fill="none" stroke="#171c20" stroke-width="0.18"/><path d="M105.5000,102.5000 L103.5000,101.5000" fill="none" stroke="#171c20" stroke-width="0.18"/><path d="M105.5000,102.5000 L103.5000,103.5000" fill="none" stroke="#171c20" stroke-width="0.18"/><text x="83.5" y="100.7" font-family="DejaVu Sans" font-size="2.8" text-anchor="middle" fill="#171c20">88*</text><path d="M61.5000,62.5000 L57.5000,62.5000" fill="none" stroke="#171c20" stroke-width="0.15"/><path d="M61.5000,95.5000 L57.5000,95.5000" fill="none" stroke="#171c20" stroke-width="0.15"/><path d="M55.5000,62.5000 L55.5000,95.5000" fill="none" stroke="#171c20" stroke-width="0.18"/><path d="M55.5000,62.5000 L54.5000,64.5000" fill="none" stroke="#171c20" stroke-width="0.18"/><path d="M55.5000,62.5000 L56.5000,64.5000" fill="none" stroke="#171c20" stroke-width="0.18"/><path d="M55.5000,95.5000 L54.5000,93.5000" fill="none" stroke="#171c20" stroke-width="0.18"/><path d="M55.5000,95.5000 L56.5000,93.5000" fill="none" stroke="#171c20" stroke-width="0.18"/><text x="53.5" y="79.0" font-family="DejaVu Sans" font-size="2.8" text-anchor="end" fill="#171c20">66*</text><text x="158" y="44" font-family="DejaVu Sans" font-size="2.8" text-anchor="start" fill="#171c20" font-weight="bold">Вид по +Y · X/Z · М 1:1</text><polyline points="174.5000,73.0000 262.5000,73.0000" fill="none" stroke="#889196" stroke-width=".12" stroke-dasharray="1.5 1"/><polyline points="260.5000,73.0000 176.5000,73.0000" fill="none" stroke="#889196" stroke-width=".12" stroke-dasharray="1.5 1"/><polyline points="260.5000,73.0000 176.5000,73.0000" fill="none" stroke="#889196" stroke-width=".12" stroke-dasharray="1.5 1"/><polyline points="260.5000,83.0000 260.5000,73.0000" fill="none" stroke="#889196" stroke-width=".12" stroke-dasharray="1.5 1"/><polyline points="176.5000,83.0000 176.5000,73.0000" fill="none" stroke="#889196" stroke-width=".12" stroke-dasharray="1.5 1"/><polyline points="260.5000,83.0000 176.5000,83.0000" fill="none" stroke="#889196" stroke-width=".12" stroke-dasharray="1.5 1"/><polyline points="260.5000,83.0000 260.5000,73.0000" fill="none" stroke="#889196" stroke-width=".12" stroke-dasharray="1.5 1"/><polyline points="176.5000,83.0000 176.5000,73.0000" fill="none" stroke="#889196" stroke-width=".12" stroke-dasharray="1.5 1"/><polyline points="260.5000,83.0000 176.5000,83.0000" fill="none" stroke="#889196" stroke-width=".12" stroke-dasharray="1.5 1"/><polyline points="174.5000,85.0000 174.5000,73.0000" fill="none" stroke="#889196" stroke-width=".12" stroke-dasharray="1.5 1"/><polyline points="174.5000,85.0000 262.5000,85.0000" fill="none" stroke="#889196" stroke-width=".12" stroke-dasharray="1.5 1"/><polyline points="262.5000,85.0000 262.5000,73.0000" fill="none" stroke="#889196" stroke-width=".12" stroke-dasharray="1.5 1"/><polyline points="174.5000,73.0000 262.5000,73.0000" fill="none" stroke="#171c20" stroke-width=".24"/><polyline points="174.5000,85.0000 174.5000,73.0000" fill="none" stroke="#171c20" stroke-width=".24"/><polyline points="174.5000,85.0000 262.5000,85.0000" fill="none" stroke="#171c20" stroke-width=".24"/><polyline points="262.5000,85.0000 262.5000,73.0000" fill="none" stroke="#171c20" stroke-width=".24"/><path d="M174.5000,85.0000 L174.5000,90.0000" fill="none" stroke="#171c20" stroke-width="0.15"/><path d="M262.5000,85.0000 L262.5000,90.0000" fill="none" stroke="#171c20" stroke-width="0.15"/><path d="M174.5000,92.0000 L262.5000,92.0000" fill="none" stroke="#171c20" stroke-width="0.18"/><path d="M174.5000,92.0000 L176.5000,91.0000" fill="none" stroke="#171c20" stroke-width="0.18"/><path d="M174.5000,92.0000 L176.5000,93.0000" fill="none" stroke="#171c20" stroke-width="0.18"/><path d="M262.5000,92.0000 L260.5000,91.0000" fill="none" stroke="#171c20" stroke-width="0.18"/><path d="M262.5000,92.0000 L260.5000,93.0000" fill="none" stroke="#171c20" stroke-width="0.18"/><text x="218.5" y="90.2" font-family="DejaVu Sans" font-size="2.8" text-anchor="middle" fill="#171c20">88*</text><path d="M174.5000,73.0000 L170.5000,73.0000" fill="none" stroke="#171c20" stroke-width="0.15"/><path d="M174.5000,85.0000 L170.5000,85.0000" fill="none" stroke="#171c20" stroke-width="0.15"/><path d="M168.5000,73.0000 L168.5000,85.0000" fill="none" stroke="#171c20" stroke-width="0.18"/><path d="M168.5000,73.0000 L167.5000,75.0000" fill="none" stroke="#171c20" stroke-width="0.18"/><path d="M168.5000,73.0000 L169.5000,75.0000" fill="none" stroke="#171c20" stroke-width="0.18"/><path d="M168.5000,85.0000 L167.5000,83.0000" fill="none" stroke="#171c20" stroke-width="0.18"/><path d="M168.5000,85.0000 L169.5000,83.0000" fill="none" stroke="#171c20" stroke-width="0.18"/><text x="166.5" y="79.0" font-family="DejaVu Sans" font-size="2.8" text-anchor="end" fill="#171c20">12*</text><text x="23" y="134" font-family="DejaVu Sans" font-size="2.8" text-anchor="start" fill="#171c20" font-weight="bold">Вид по −X · Y/Z · М 1:1</text><polyline points="50.5000,163.0000 116.5000,163.0000" fill="none" stroke="#889196" stroke-width=".12" stroke-dasharray="1.5 1"/><polyline points="52.5000,163.0000 114.5000,163.0000" fill="none" stroke="#889196" stroke-width=".12" stroke-dasharray="1.5 1"/><polyline points="52.5000,163.0000 114.5000,163.0000" fill="none" stroke="#889196" stroke-width=".12" stroke-dasharray="1.5 1"/><polyline points="52.5000,173.0000 52.5000,163.0000" fill="none" stroke="#889196" stroke-width=".12" stroke-dasharray="1.5 1"/><polyline points="52.5000,173.0000 52.5000,163.0000" fill="none" stroke="#889196" stroke-width=".12" stroke-dasharray="1.5 1"/><polyline points="114.5000,173.0000 114.5000,163.0000" fill="none" stroke="#889196" stroke-width=".12" stroke-dasharray="1.5 1"/><polyline points="52.5000,173.0000 114.5000,173.0000" fill="none" stroke="#889196" stroke-width=".12" stroke-dasharray="1.5 1"/><polyline points="114.5000,173.0000 114.5000,163.0000" fill="none" stroke="#889196" stroke-width=".12" stroke-dasharray="1.5 1"/><polyline points="52.5000,173.0000 114.5000,173.0000" fill="none" stroke="#889196" stroke-width=".12" stroke-dasharray="1.5 1"/><polyline points="50.5000,175.0000 50.5000,163.0000" fill="none" stroke="#889196" stroke-width=".12" stroke-dasharray="1.5 1"/><polyline points="116.5000,175.0000 116.5000,163.0000" fill="none" stroke="#889196" stroke-width=".12" stroke-dasharray="1.5 1"/><polyline points="50.5000,175.0000 116.5000,175.0000" fill="none" stroke="#889196" stroke-width=".12" stroke-dasharray="1.5 1"/><polyline points="50.5000,163.0000 116.5000,163.0000" fill="none" stroke="#171c20" stroke-width=".24"/><polyline points="50.5000,175.0000 116.5000,175.0000" fill="none" stroke="#171c20" stroke-width=".24"/><polyline points="50.5000,175.0000 50.5000,163.0000" fill="none" stroke="#171c20" stroke-width=".24"/><polyline points="116.5000,175.0000 116.5000,163.0000" fill="none" stroke="#171c20" stroke-width=".24"/><path d="M50.5000,175.0000 L50.5000,180.0000" fill="none" stroke="#171c20" stroke-width="0.15"/><path d="M116.5000,175.0000 L116.5000,180.0000" fill="none" stroke="#171c20" stroke-width="0.15"/><path d="M50.5000,182.0000 L116.5000,182.0000" fill="none" stroke="#171c20" stroke-width="0.18"/><path d="M50.5000,182.0000 L52.5000,181.0000" fill="none" stroke="#171c20" stroke-width="0.18"/><path d="M50.5000,182.0000 L52.5000,183.0000" fill="none" stroke="#171c20" stroke-width="0.18"/><path d="M116.5000,182.0000 L114.5000,181.0000" fill="none" stroke="#171c20" stroke-width="0.18"/><path d="M116.5000,182.0000 L114.5000,183.0000" fill="none" stroke="#171c20" stroke-width="0.18"/><text x="83.5" y="180.2" font-family="DejaVu Sans" font-size="2.8" text-anchor="middle" fill="#171c20">66*</text><path d="M50.5000,163.0000 L46.5000,163.0000" fill="none" stroke="#171c20" stroke-width="0.15"/><path d="M50.5000,175.0000 L46.5000,175.0000" fill="none" stroke="#171c20" stroke-width="0.15"/><path d="M44.5000,163.0000 L44.5000,175.0000" fill="none" stroke="#171c20" stroke-width="0.18"/><path d="M44.5000,163.0000 L43.5000,165.0000" fill="none" stroke="#171c20" stroke-width="0.18"/><path d="M44.5000,163.0000 L45.5000,165.0000" fill="none" stroke="#171c20" stroke-width="0.18"/><path d="M44.5000,175.0000 L43.5000,173.0000" fill="none" stroke="#171c20" stroke-width="0.18"/><path d="M44.5000,175.0000 L45.5000,173.0000" fill="none" stroke="#171c20" stroke-width="0.18"/><text x="42.5" y="169.0" font-family="DejaVu Sans" font-size="2.8" text-anchor="end" fill="#171c20">12*</text><text x="158" y="134" font-family="DejaVu Sans" font-size="2.8" text-anchor="start" fill="#171c20" font-weight="bold">Аксонометрия · М 1:2</text><polyline points="244.3094,165.1216 244.3094,169.2041" fill="none" stroke="#889196" stroke-width=".12" stroke-dasharray="1.5 1"/><polyline points="244.3094,165.1216 240.7739,167.1629" fill="none" stroke="#889196" stroke-width=".12" stroke-dasharray="1.5 1"/><polyline points="222.3891,152.4659 222.3891,156.5484" fill="none" stroke="#889196" stroke-width=".12" stroke-dasharray="1.5 1"/><polyline points="244.3094,165.1216 222.3891,152.4659" fill="none" stroke="#889196" stroke-width=".12" stroke-dasharray="1.5 1"/><polyline points="192.6906,169.6124 192.6906,173.6949" fill="none" stroke="#889196" stroke-width=".12" stroke-dasharray="1.5 1"/><polyline points="222.3891,152.4659 192.6906,169.6124" fill="none" stroke="#889196" stroke-width=".12" stroke-dasharray="1.5 1"/><polyline points="196.2261,171.6536 192.6906,169.6124" fill="none" stroke="#889196" stroke-width=".12" stroke-dasharray="1.5 1"/><polyline points="214.6109,182.2681 214.6109,187.1671" fill="none" stroke="#889196" stroke-width=".12" stroke-dasharray="1.5 1"/><polyline points="214.6109,182.2681 191.2764,168.7959" fill="none" stroke="#889196" stroke-width=".12" stroke-dasharray="1.5 1"/><polyline points="214.6109,182.2681 245.7236,164.3051" fill="none" stroke="#889196" stroke-width=".12" stroke-dasharray="1.5 1"/><polyline points="214.6109,187.1671 191.2764,173.6949" fill="none" stroke="#171c20" stroke-width=".24"/><polyline points="191.2764,173.6949 222.3891,155.7319" fill="none" stroke="#171c20" stroke-width=".24"/><polyline points="214.6109,187.1671 245.7236,169.2041" fill="none" stroke="#171c20" stroke-width=".24"/><polyline points="245.7236,169.2041 222.3891,155.7319" fill="none" stroke="#171c20" stroke-width=".24"/><polyline points="244.3094,169.2041 214.6109,186.3506" fill="none" stroke="#171c20" stroke-width=".24"/><polyline points="244.3094,169.2041 222.3891,156.5484" fill="none" stroke="#171c20" stroke-width=".24"/><polyline points="222.3891,156.5484 192.6906,173.6949" fill="none" stroke="#171c20" stroke-width=".24"/><polyline points="214.6109,186.3506 192.6906,173.6949" fill="none" stroke="#171c20" stroke-width=".24"/><polyline points="214.6109,182.2681 214.6109,186.3506" fill="none" stroke="#171c20" stroke-width=".24"/><polyline points="240.7739,167.1629 214.6109,182.2681" fill="none" stroke="#171c20" stroke-width=".24"/><polyline points="214.6109,182.2681 196.2261,171.6536" fill="none" stroke="#171c20" stroke-width=".24"/><polyline points="191.2764,168.7959 191.2764,173.6949" fill="none" stroke="#171c20" stroke-width=".24"/><polyline points="191.2764,168.7959 222.3891,150.8330" fill="none" stroke="#171c20" stroke-width=".24"/><polyline points="245.7236,164.3051 222.3891,150.8330" fill="none" stroke="#171c20" stroke-width=".24"/><polyline points="245.7236,164.3051 245.7236,169.2041" fill="none" stroke="#171c20" stroke-width=".24"/><polyline points="222.3891,150.8330 222.3891,155.7319" fill="none" stroke="#171c20" stroke-width=".24"/><path d="M288.0000,35.0000 L288.0000,235.0000" fill="none" stroke="#171c20" stroke-width="0.18"/><text x="295" y="42.0" font-family="DejaVu Sans" font-size="3.2" text-anchor="start" fill="#171c20">Проектная деталь · материал и допуски уточнить</text><text x="295" y="50.64" font-family="DejaVu Sans" font-size="2.8" text-anchor="start" fill="#171c20">1. Размеры номинальные из CAD D01. Общие допуски, шероховатость и</text><text x="295" y="54.7" font-family="DejaVu Sans" font-size="2.8" text-anchor="start" fill="#171c20">посадки не назначены.</text><text x="295" y="61.76" font-family="DejaVu Sans" font-size="2.8" text-anchor="start" fill="#171c20">2. Масса расчётная; плотность либо назначенная масса взяты из</text><text x="295" y="65.82" font-family="DejaVu Sans" font-size="2.8" text-anchor="start" fill="#171c20">ведомости.</text><text x="295" y="72.88" font-family="DejaVu Sans" font-size="2.8" text-anchor="start" fill="#171c20">3. Контуры получены проекцией BRep. Перед изготовлением: выпуск</text><text x="295" y="76.94" font-family="DejaVu Sans" font-size="2.8" text-anchor="start" fill="#171c20">допусков, технологии и проверка креплений.</text><text x="15" y="224" font-family="DejaVu Sans" font-size="3.2" text-anchor="start" fill="#171c20">Локальный габарит X × Y × Z: 88 × 66 × 12 мм</text><text x="15" y="233.0" font-family="DejaVu Sans" font-size="2.7" text-anchor="start" fill="#171c20">Ориентация листа: Rx 0°; затем перенос начала в (1091; -33; -15) мм повернутой сборки.</text><text x="12" y="258.0" font-family="DejaVu Sans" font-size="3" text-anchor="start" fill="#171c20">Материал / массовая модель: PETG prototype rho1.27</text><text x="12" y="271" font-family="DejaVu Sans" font-size="3" text-anchor="start" fill="#171c20">Позиция 050 · Кол. 1 · Масса 22.372 г · Тел 1 · Размеры со * — справочные</text><text x="250" y="279" font-family="DejaVu Sans" font-size="2.8" text-anchor="start" fill="#171c20">Утвердил: —  |  Технология: —  |  Допуски: —</text></svg>