<svg xmlns="http://www.w3.org/2000/svg" width="420mm" height="297mm" viewBox="0 0 420 297"><rect width="420" height="297" fill="white"/><rect x="5" y="5" width="410" height="287" fill="none" stroke="#171c20" stroke-width=".3"/><path d="M5.0000,30.0000 L415.0000,30.0000" fill="none" stroke="#171c20" stroke-width="0.25"/><path d="M5.0000,243.0000 L415.0000,243.0000" fill="none" stroke="#171c20" stroke-width="0.25"/><text x="12" y="14" font-family="DejaVu Sans" font-size="5" text-anchor="start" fill="#171c20" font-weight="bold">PLBP-D01-P026</text><text x="408" y="14" font-family="DejaVu Sans" font-size="3" text-anchor="end" fill="#171c20">D01 / DW01 · 01.10.2026</text><text x="12" y="22.0" font-family="DejaVu Sans" font-size="3.6" text-anchor="start" fill="#171c20">M01 ложемент батареи: жёсткая защита без обжатия ячейки</text><text x="12" y="250" font-family="DejaVu Sans" font-size="3.2" text-anchor="start" fill="#171c20" font-weight="bold">ПРОЕКТНЫЙ ЧЕРТЁЖ · НОМИНАЛЬНАЯ ГЕОМЕТРИЯ · НЕ ВЫПУЩЕНО В ПРОИЗВОДСТВО</text><text x="12" y="286" font-family="DejaVu Sans" font-size="3" text-anchor="start" fill="#171c20">PLBP-SG1 · Супер ГИРД | A3: 420 × 297 мм | Размеры: мм | Печатать 100%</text><text x="408" y="286" font-family="DejaVu Sans" font-size="3" text-anchor="end" fill="#171c20">Лист 1/1</text><text x="23" y="44" font-family="DejaVu Sans" font-size="2.8" text-anchor="start" fill="#171c20" font-weight="bold">Вид по −Z · X/Y · М 1:1</text><polyline points="116.0000,97.1500 51.0000,97.1500" fill="none" stroke="#889196" stroke-width=".12" stroke-dasharray="1.5 1"/><polyline points="116.0000,97.1500 116.0000,60.8500" fill="none" stroke="#889196" stroke-width=".12" stroke-dasharray="1.5 1"/><polyline points="116.0000,74.0000 116.0000,84.0000" fill="none" stroke="#889196" stroke-width=".12" stroke-dasharray="1.5 1"/><polyline points="116.0000,74.0000 116.0000,84.0000" fill="none" stroke="#889196" stroke-width=".12" stroke-dasharray="1.5 1"/><polyline points="116.0000,60.8500 51.0000,60.8500" fill="none" stroke="#889196" stroke-width=".12" stroke-dasharray="1.5 1"/><polyline points="51.0000,97.1500 51.0000,60.8500" fill="none" stroke="#889196" stroke-width=".12" stroke-dasharray="1.5 1"/><polyline points="116.0000,74.0000 118.0000,74.0000" fill="none" stroke="#889196" stroke-width=".12" stroke-dasharray="1.5 1"/><polyline points="118.0000,74.0000 118.0000,84.0000" fill="none" stroke="#889196" stroke-width=".12" stroke-dasharray="1.5 1"/><polyline points="116.0000,84.0000 118.0000,84.0000" fill="none" stroke="#889196" stroke-width=".12" stroke-dasharray="1.5 1"/><polyline points="116.0000,74.0000 118.0000,74.0000" fill="none" stroke="#889196" stroke-width=".12" stroke-dasharray="1.5 1"/><polyline points="118.0000,74.0000 118.0000,84.0000" fill="none" stroke="#889196" stroke-width=".12" stroke-dasharray="1.5 1"/><polyline points="116.0000,84.0000 118.0000,84.0000" fill="none" stroke="#889196" stroke-width=".12" stroke-dasharray="1.5 1"/><polyline points="49.0000,98.1500 49.0000,59.8500" fill="none" stroke="#889196" stroke-width=".12" stroke-dasharray="1.5 1"/><polyline points="49.0000,59.8500 118.0000,59.8500" fill="none" stroke="#889196" stroke-width=".12" stroke-dasharray="1.5 1"/><polyline points="118.0000,98.1500 118.0000,59.8500" fill="none" stroke="#889196" stroke-width=".12" stroke-dasharray="1.5 1"/><polyline points="49.0000,98.1500 118.0000,98.1500" fill="none" stroke="#889196" stroke-width=".12" stroke-dasharray="1.5 1"/><polyline points="49.0000,98.1500 49.0000,59.8500" fill="none" stroke="#171c20" stroke-width=".24"/><polyline points="49.0000,59.8500 118.0000,59.8500" fill="none" stroke="#171c20" stroke-width=".24"/><polyline points="49.0000,98.1500 118.0000,98.1500" fill="none" stroke="#171c20" stroke-width=".24"/><polyline points="118.0000,98.1500 118.0000,59.8500" fill="none" stroke="#171c20" stroke-width=".24"/><polyline points="116.0000,97.1500 51.0000,97.1500" fill="none" stroke="#171c20" stroke-width=".24"/><polyline points="116.0000,97.1500 116.0000,60.8500" fill="none" stroke="#171c20" stroke-width=".24"/><polyline points="116.0000,60.8500 51.0000,60.8500" fill="none" stroke="#171c20" stroke-width=".24"/><polyline points="51.0000,97.1500 51.0000,60.8500" fill="none" stroke="#171c20" stroke-width=".24"/><path d="M49.0000,98.1500 L49.0000,103.1500" fill="none" stroke="#171c20" stroke-width="0.15"/><path d="M118.0000,98.1500 L118.0000,103.1500" fill="none" stroke="#171c20" stroke-width="0.15"/><path d="M49.0000,105.1500 L118.0000,105.1500" fill="none" stroke="#171c20" stroke-width="0.18"/><path d="M49.0000,105.1500 L51.0000,104.1500" fill="none" stroke="#171c20" stroke-width="0.18"/><path d="M49.0000,105.1500 L51.0000,106.1500" fill="none" stroke="#171c20" stroke-width="0.18"/><path d="M118.0000,105.1500 L116.0000,104.1500" fill="none" stroke="#171c20" stroke-width="0.18"/><path d="M118.0000,105.1500 L116.0000,106.1500" fill="none" stroke="#171c20" stroke-width="0.18"/><text x="83.5" y="103.35000000000001" font-family="DejaVu Sans" font-size="2.8" text-anchor="middle" fill="#171c20">69*</text><path d="M49.0000,59.8500 L45.0000,59.8500" fill="none" stroke="#171c20" stroke-width="0.15"/><path d="M49.0000,98.1500 L45.0000,98.1500" fill="none" stroke="#171c20" stroke-width="0.15"/><path d="M43.0000,59.8500 L43.0000,98.1500" fill="none" stroke="#171c20" stroke-width="0.18"/><path d="M43.0000,59.8500 L42.0000,61.8500" fill="none" stroke="#171c20" stroke-width="0.18"/><path d="M43.0000,59.8500 L44.0000,61.8500" fill="none" stroke="#171c20" stroke-width="0.18"/><path d="M43.0000,98.1500 L42.0000,96.1500" fill="none" stroke="#171c20" stroke-width="0.18"/><path d="M43.0000,98.1500 L44.0000,96.1500" fill="none" stroke="#171c20" stroke-width="0.18"/><text x="41.0" y="79.0" font-family="DejaVu Sans" font-size="2.8" text-anchor="end" fill="#171c20">38.3*</text><text x="158" y="44" font-family="DejaVu Sans" font-size="2.8" text-anchor="start" fill="#171c20" font-weight="bold">Вид по +Y · X/Z · М 1:1</text><polyline points="184.0000,73.7500 253.0000,73.7500" fill="none" stroke="#889196" stroke-width=".12" stroke-dasharray="1.5 1"/><polyline points="251.0000,73.7500 186.0000,73.7500" fill="none" stroke="#889196" stroke-width=".12" stroke-dasharray="1.5 1"/><polyline points="251.0000,73.7500 186.0000,73.7500" fill="none" stroke="#889196" stroke-width=".12" stroke-dasharray="1.5 1"/><polyline points="251.0000,82.7500 251.0000,73.7500" fill="none" stroke="#889196" stroke-width=".12" stroke-dasharray="1.5 1"/><polyline points="186.0000,82.7500 186.0000,73.7500" fill="none" stroke="#889196" stroke-width=".12" stroke-dasharray="1.5 1"/><polyline points="251.0000,82.7500 186.0000,82.7500" fill="none" stroke="#889196" stroke-width=".12" stroke-dasharray="1.5 1"/><polyline points="251.0000,82.7500 251.0000,73.7500" fill="none" stroke="#889196" stroke-width=".12" stroke-dasharray="1.5 1"/><polyline points="251.0000,79.2500 251.0000,74.2500" fill="none" stroke="#889196" stroke-width=".12" stroke-dasharray="1.5 1"/><polyline points="251.0000,79.2500 251.0000,74.2500" fill="none" stroke="#889196" stroke-width=".12" stroke-dasharray="1.5 1"/><polyline points="186.0000,82.7500 186.0000,73.7500" fill="none" stroke="#889196" stroke-width=".12" stroke-dasharray="1.5 1"/><polyline points="251.0000,82.7500 186.0000,82.7500" fill="none" stroke="#889196" stroke-width=".12" stroke-dasharray="1.5 1"/><polyline points="251.0000,79.2500 253.0000,79.2500" fill="none" stroke="#889196" stroke-width=".12" stroke-dasharray="1.5 1"/><polyline points="251.0000,79.2500 253.0000,79.2500" fill="none" stroke="#889196" stroke-width=".12" stroke-dasharray="1.5 1"/><polyline points="253.0000,79.2500 253.0000,74.2500" fill="none" stroke="#889196" stroke-width=".12" stroke-dasharray="1.5 1"/><polyline points="251.0000,74.2500 253.0000,74.2500" fill="none" stroke="#889196" stroke-width=".12" stroke-dasharray="1.5 1"/><polyline points="251.0000,74.2500 253.0000,74.2500" fill="none" stroke="#889196" stroke-width=".12" stroke-dasharray="1.5 1"/><polyline points="253.0000,79.2500 253.0000,74.2500" fill="none" stroke="#889196" stroke-width=".12" stroke-dasharray="1.5 1"/><polyline points="184.0000,84.2500 184.0000,73.7500" fill="none" stroke="#889196" stroke-width=".12" stroke-dasharray="1.5 1"/><polyline points="184.0000,84.2500 253.0000,84.2500" fill="none" stroke="#889196" stroke-width=".12" stroke-dasharray="1.5 1"/><polyline points="253.0000,84.2500 253.0000,73.7500" fill="none" stroke="#889196" stroke-width=".12" stroke-dasharray="1.5 1"/><polyline points="184.0000,73.7500 253.0000,73.7500" fill="none" stroke="#171c20" stroke-width=".24"/><polyline points="184.0000,84.2500 184.0000,73.7500" fill="none" stroke="#171c20" stroke-width=".24"/><polyline points="184.0000,84.2500 253.0000,84.2500" fill="none" stroke="#171c20" stroke-width=".24"/><polyline points="253.0000,84.2500 253.0000,73.7500" fill="none" stroke="#171c20" stroke-width=".24"/><path d="M184.0000,84.2500 L184.0000,89.2500" fill="none" stroke="#171c20" stroke-width="0.15"/><path d="M253.0000,84.2500 L253.0000,89.2500" fill="none" stroke="#171c20" stroke-width="0.15"/><path d="M184.0000,91.2500 L253.0000,91.2500" fill="none" stroke="#171c20" stroke-width="0.18"/><path d="M184.0000,91.2500 L186.0000,90.2500" fill="none" stroke="#171c20" stroke-width="0.18"/><path d="M184.0000,91.2500 L186.0000,92.2500" fill="none" stroke="#171c20" stroke-width="0.18"/><path d="M253.0000,91.2500 L251.0000,90.2500" fill="none" stroke="#171c20" stroke-width="0.18"/><path d="M253.0000,91.2500 L251.0000,92.2500" fill="none" stroke="#171c20" stroke-width="0.18"/><text x="218.5" y="89.45" font-family="DejaVu Sans" font-size="2.8" text-anchor="middle" fill="#171c20">69*</text><path d="M184.0000,73.7500 L180.0000,73.7500" fill="none" stroke="#171c20" stroke-width="0.15"/><path d="M184.0000,84.2500 L180.0000,84.2500" fill="none" stroke="#171c20" stroke-width="0.15"/><path d="M178.0000,73.7500 L178.0000,84.2500" fill="none" stroke="#171c20" stroke-width="0.18"/><path d="M178.0000,73.7500 L177.0000,75.7500" fill="none" stroke="#171c20" stroke-width="0.18"/><path d="M178.0000,73.7500 L179.0000,75.7500" fill="none" stroke="#171c20" stroke-width="0.18"/><path d="M178.0000,84.2500 L177.0000,82.2500" fill="none" stroke="#171c20" stroke-width="0.18"/><path d="M178.0000,84.2500 L179.0000,82.2500" fill="none" stroke="#171c20" stroke-width="0.18"/><text x="176.0" y="79.0" font-family="DejaVu Sans" font-size="2.8" text-anchor="end" fill="#171c20">10.5*</text><text x="23" y="134" font-family="DejaVu Sans" font-size="2.8" text-anchor="start" fill="#171c20" font-weight="bold">Вид по −X · Y/Z · М 2:1</text><polyline points="45.2000,158.5000 121.8000,158.5000" fill="none" stroke="#889196" stroke-width=".12" stroke-dasharray="1.5 1"/><polyline points="47.2000,158.5000 119.8000,158.5000" fill="none" stroke="#889196" stroke-width=".12" stroke-dasharray="1.5 1"/><polyline points="47.2000,158.5000 119.8000,158.5000" fill="none" stroke="#889196" stroke-width=".12" stroke-dasharray="1.5 1"/><polyline points="47.2000,176.5000 47.2000,158.5000" fill="none" stroke="#889196" stroke-width=".12" stroke-dasharray="1.5 1"/><polyline points="47.2000,176.5000 47.2000,158.5000" fill="none" stroke="#889196" stroke-width=".12" stroke-dasharray="1.5 1"/><polyline points="47.2000,176.5000 119.8000,176.5000" fill="none" stroke="#889196" stroke-width=".12" stroke-dasharray="1.5 1"/><polyline points="119.8000,176.5000 119.8000,158.5000" fill="none" stroke="#889196" stroke-width=".12" stroke-dasharray="1.5 1"/><polyline points="93.5000,169.5000 73.5000,169.5000" fill="none" stroke="#889196" stroke-width=".12" stroke-dasharray="1.5 1"/><polyline points="93.5000,169.5000 93.5000,159.5000" fill="none" stroke="#889196" stroke-width=".12" stroke-dasharray="1.5 1"/><polyline points="93.5000,159.5000 73.5000,159.5000" fill="none" stroke="#889196" stroke-width=".12" stroke-dasharray="1.5 1"/><polyline points="73.5000,169.5000 73.5000,159.5000" fill="none" stroke="#889196" stroke-width=".12" stroke-dasharray="1.5 1"/><polyline points="119.8000,176.5000 119.8000,158.5000" fill="none" stroke="#889196" stroke-width=".12" stroke-dasharray="1.5 1"/><polyline points="47.2000,176.5000 119.8000,176.5000" fill="none" stroke="#889196" stroke-width=".12" stroke-dasharray="1.5 1"/><polyline points="45.2000,179.5000 45.2000,158.5000" fill="none" stroke="#889196" stroke-width=".12" stroke-dasharray="1.5 1"/><polyline points="121.8000,179.5000 121.8000,158.5000" fill="none" stroke="#889196" stroke-width=".12" stroke-dasharray="1.5 1"/><polyline points="45.2000,179.5000 121.8000,179.5000" fill="none" stroke="#889196" stroke-width=".12" stroke-dasharray="1.5 1"/><polyline points="45.2000,158.5000 121.8000,158.5000" fill="none" stroke="#171c20" stroke-width=".24"/><polyline points="93.5000,169.5000 73.5000,169.5000" fill="none" stroke="#171c20" stroke-width=".24"/><polyline points="93.5000,169.5000 93.5000,159.5000" fill="none" stroke="#171c20" stroke-width=".24"/><polyline points="93.5000,159.5000 73.5000,159.5000" fill="none" stroke="#171c20" stroke-width=".24"/><polyline points="73.5000,169.5000 73.5000,159.5000" fill="none" stroke="#171c20" stroke-width=".24"/><polyline points="45.2000,179.5000 121.8000,179.5000" fill="none" stroke="#171c20" stroke-width=".24"/><polyline points="45.2000,179.5000 45.2000,158.5000" fill="none" stroke="#171c20" stroke-width=".24"/><polyline points="121.8000,179.5000 121.8000,158.5000" fill="none" stroke="#171c20" stroke-width=".24"/><path d="M45.2000,179.5000 L45.2000,184.5000" fill="none" stroke="#171c20" stroke-width="0.15"/><path d="M121.8000,179.5000 L121.8000,184.5000" fill="none" stroke="#171c20" stroke-width="0.15"/><path d="M45.2000,186.5000 L121.8000,186.5000" fill="none" stroke="#171c20" stroke-width="0.18"/><path d="M45.2000,186.5000 L47.2000,185.5000" fill="none" stroke="#171c20" stroke-width="0.18"/><path d="M45.2000,186.5000 L47.2000,187.5000" fill="none" stroke="#171c20" stroke-width="0.18"/><path d="M121.8000,186.5000 L119.8000,185.5000" fill="none" stroke="#171c20" stroke-width="0.18"/><path d="M121.8000,186.5000 L119.8000,187.5000" fill="none" stroke="#171c20" stroke-width="0.18"/><text x="83.5" y="184.7" font-family="DejaVu Sans" font-size="2.8" text-anchor="middle" fill="#171c20">38.3*</text><path d="M45.2000,158.5000 L41.2000,158.5000" fill="none" stroke="#171c20" stroke-width="0.15"/><path d="M45.2000,179.5000 L41.2000,179.5000" fill="none" stroke="#171c20" stroke-width="0.15"/><path d="M39.2000,158.5000 L39.2000,179.5000" fill="none" stroke="#171c20" stroke-width="0.18"/><path d="M39.2000,158.5000 L38.2000,160.5000" fill="none" stroke="#171c20" stroke-width="0.18"/><path d="M39.2000,158.5000 L40.2000,160.5000" fill="none" stroke="#171c20" stroke-width="0.18"/><path d="M39.2000,179.5000 L38.2000,177.5000" fill="none" stroke="#171c20" stroke-width="0.18"/><path d="M39.2000,179.5000 L40.2000,177.5000" fill="none" stroke="#171c20" stroke-width="0.18"/><text x="37.2" y="169.0" font-family="DejaVu Sans" font-size="2.8" text-anchor="end" fill="#171c20">10.5*</text><text x="158" y="134" font-family="DejaVu Sans" font-size="2.8" text-anchor="start" fill="#171c20" font-weight="bold">Аксонометрия · М 1:1</text><polyline points="254.3150,160.0798 254.3150,167.4282" fill="none" stroke="#889196" stroke-width=".12" stroke-dasharray="1.5 1"/><polyline points="254.3150,160.0798 247.9510,163.7540" fill="none" stroke="#889196" stroke-width=".12" stroke-dasharray="1.5 1"/><polyline points="254.3150,160.0798 228.6470,145.2604" fill="none" stroke="#889196" stroke-width=".12" stroke-dasharray="1.5 1"/><polyline points="228.6470,145.2604 228.6470,152.6088" fill="none" stroke="#889196" stroke-width=".12" stroke-dasharray="1.5 1"/><polyline points="237.9454,153.4866 239.3596,154.3031" fill="none" stroke="#889196" stroke-width=".12" stroke-dasharray="1.5 1"/><polyline points="237.9454,153.4866 237.9454,157.5690" fill="none" stroke="#889196" stroke-width=".12" stroke-dasharray="1.5 1"/><polyline points="237.9454,157.5690 245.0165,161.6515" fill="none" stroke="#889196" stroke-width=".12" stroke-dasharray="1.5 1"/><polyline points="245.0165,160.0185 245.0165,161.6515" fill="none" stroke="#889196" stroke-width=".12" stroke-dasharray="1.5 1"/><polyline points="182.6850,171.7965 182.6850,179.1450" fill="none" stroke="#889196" stroke-width=".12" stroke-dasharray="1.5 1"/><polyline points="228.6470,145.2604 182.6850,171.7965" fill="none" stroke="#889196" stroke-width=".12" stroke-dasharray="1.5 1"/><polyline points="189.0490,175.4707 182.6850,171.7965" fill="none" stroke="#889196" stroke-width=".12" stroke-dasharray="1.5 1"/><polyline points="237.9454,153.4866 239.3596,152.6701" fill="none" stroke="#889196" stroke-width=".12" stroke-dasharray="1.5 1"/><polyline points="237.9454,157.5690 239.3596,156.7526" fill="none" stroke="#889196" stroke-width=".12" stroke-dasharray="1.5 1"/><polyline points="245.0165,161.6515 246.4307,160.8350" fill="none" stroke="#889196" stroke-width=".12" stroke-dasharray="1.5 1"/><polyline points="207.6459,186.6159 207.6459,195.1891" fill="none" stroke="#889196" stroke-width=".12" stroke-dasharray="1.5 1"/><polyline points="207.6459,186.6159 180.5637,170.9800" fill="none" stroke="#889196" stroke-width=".12" stroke-dasharray="1.5 1"/><polyline points="207.6459,186.6159 256.4363,158.4468" fill="none" stroke="#889196" stroke-width=".12" stroke-dasharray="1.5 1"/><polyline points="207.6459,195.1891 180.5637,179.5532" fill="none" stroke="#171c20" stroke-width=".24"/><polyline points="180.5637,179.5532 229.3541,151.3841" fill="none" stroke="#171c20" stroke-width=".24"/><polyline points="207.6459,195.1891 256.4363,167.0200" fill="none" stroke="#171c20" stroke-width=".24"/><polyline points="256.4363,167.0200 229.3541,151.3841" fill="none" stroke="#171c20" stroke-width=".24"/><polyline points="254.3150,167.4282 208.3530,193.9644" fill="none" stroke="#171c20" stroke-width=".24"/><polyline points="254.3150,167.4282 228.6470,152.6088" fill="none" stroke="#171c20" stroke-width=".24"/><polyline points="228.6470,152.6088 182.6850,179.1450" fill="none" stroke="#171c20" stroke-width=".24"/><polyline points="208.3530,193.9644 182.6850,179.1450" fill="none" stroke="#171c20" stroke-width=".24"/><polyline points="208.3530,186.6159 208.3530,193.9644" fill="none" stroke="#171c20" stroke-width=".24"/><polyline points="247.9510,163.7540 208.3530,186.6159" fill="none" stroke="#171c20" stroke-width=".24"/><polyline points="239.3596,154.3031 245.0165,157.5690" fill="none" stroke="#171c20" stroke-width=".24"/><polyline points="245.0165,157.5690 245.0165,160.0185" fill="none" stroke="#171c20" stroke-width=".24"/><polyline points="208.3530,186.6159 189.0490,175.4707" fill="none" stroke="#171c20" stroke-width=".24"/><polyline points="239.3596,152.6701 246.4307,156.7526" fill="none" stroke="#171c20" stroke-width=".24"/><polyline points="245.0165,157.5690 246.4307,156.7526" fill="none" stroke="#171c20" stroke-width=".24"/><polyline points="239.3596,152.6701 239.3596,156.7526" fill="none" stroke="#171c20" stroke-width=".24"/><polyline points="239.3596,156.7526 246.4307,160.8350" fill="none" stroke="#171c20" stroke-width=".24"/><polyline points="246.4307,156.7526 246.4307,160.8350" fill="none" stroke="#171c20" stroke-width=".24"/><polyline points="180.5637,170.9800 180.5637,179.5532" fill="none" stroke="#171c20" stroke-width=".24"/><polyline points="180.5637,170.9800 229.3541,142.8109" fill="none" stroke="#171c20" stroke-width=".24"/><polyline points="256.4363,158.4468 229.3541,142.8109" fill="none" stroke="#171c20" stroke-width=".24"/><polyline points="256.4363,158.4468 256.4363,167.0200" fill="none" stroke="#171c20" stroke-width=".24"/><polyline points="229.3541,142.8109 229.3541,151.3841" fill="none" stroke="#171c20" stroke-width=".24"/><path d="M288.0000,35.0000 L288.0000,235.0000" fill="none" stroke="#171c20" stroke-width="0.18"/><text x="295" y="42.0" font-family="DejaVu Sans" font-size="3.2" text-anchor="start" fill="#171c20">Проектная деталь · материал и допуски уточнить</text><text x="295" y="50.64" font-family="DejaVu Sans" font-size="2.8" text-anchor="start" fill="#171c20">1. Размеры номинальные из CAD D01. Общие допуски, шероховатость и</text><text x="295" y="54.7" font-family="DejaVu Sans" font-size="2.8" text-anchor="start" fill="#171c20">посадки не назначены.</text><text x="295" y="61.76" font-family="DejaVu Sans" font-size="2.8" text-anchor="start" fill="#171c20">2. Масса расчётная; плотность либо назначенная масса взяты из</text><text x="295" y="65.82" font-family="DejaVu Sans" font-size="2.8" text-anchor="start" fill="#171c20">ведомости.</text><text x="295" y="72.88" font-family="DejaVu Sans" font-size="2.8" text-anchor="start" fill="#171c20">3. Контуры получены проекцией BRep. Перед изготовлением: выпуск</text><text x="295" y="76.94" font-family="DejaVu Sans" font-size="2.8" text-anchor="start" fill="#171c20">допусков, технологии и проверка креплений.</text><text x="15" y="224" font-family="DejaVu Sans" font-size="3.2" text-anchor="start" fill="#171c20">Локальный габарит X × Y × Z: 69 × 38.3 × 10.5 мм</text><text x="15" y="233.0" font-family="DejaVu Sans" font-size="2.7" text-anchor="start" fill="#171c20">Ориентация листа: Rx 0°; затем перенос начала в (947; -19.15; -16) мм повернутой сборки.</text><text x="12" y="258.0" font-family="DejaVu Sans" font-size="3" text-anchor="start" fill="#171c20">Материал / массовая модель: PETG prototype rho1.27</text><text x="12" y="271" font-family="DejaVu Sans" font-size="3" text-anchor="start" fill="#171c20">Позиция 026 · Кол. 1 · Масса 8.144 г · Тел 1 · Размеры со * — справочные</text><text x="250" y="279" font-family="DejaVu Sans" font-size="2.8" text-anchor="start" fill="#171c20">Утвердил: —  |  Технология: —  |  Допуски: —</text></svg>