<svg xmlns="http://www.w3.org/2000/svg" width="420mm" height="297mm" viewBox="0 0 420 297"><rect width="420" height="297" fill="white"/><rect x="5" y="5" width="410" height="287" fill="none" stroke="#171c20" stroke-width=".3"/><path d="M5.0000,30.0000 L415.0000,30.0000" fill="none" stroke="#171c20" stroke-width="0.25"/><path d="M5.0000,243.0000 L415.0000,243.0000" fill="none" stroke="#171c20" stroke-width="0.25"/><text x="12" y="14" font-family="DejaVu Sans" font-size="5" text-anchor="start" fill="#171c20" font-weight="bold">PLBP-D01-P149</text><text x="408" y="14" font-family="DejaVu Sans" font-size="3" text-anchor="end" fill="#171c20">D01 / DW01 · 01.10.2026</text><text x="12" y="22.0" font-family="DejaVu Sans" font-size="3.6" text-anchor="start" fill="#171c20">Спасение · складка купола 8 (условная укладка)</text><text x="12" y="250" font-family="DejaVu Sans" font-size="3.2" text-anchor="start" fill="#171c20" font-weight="bold">ПРОЕКТНЫЙ ЧЕРТЁЖ · НОМИНАЛЬНАЯ ГЕОМЕТРИЯ · НЕ ВЫПУЩЕНО В ПРОИЗВОДСТВО</text><text x="12" y="286" font-family="DejaVu Sans" font-size="3" text-anchor="start" fill="#171c20">PLBP-SG1 · Супер ГИРД | A3: 420 × 297 мм | Размеры: мм | Печатать 100%</text><text x="408" y="286" font-family="DejaVu Sans" font-size="3" text-anchor="end" fill="#171c20">Лист 1/1</text><text x="23" y="44" font-family="DejaVu Sans" font-size="2.8" text-anchor="start" fill="#171c20" font-weight="bold">Вид по −Z · X/Y · М 1:2</text><polyline points="41.0000,72.1940 126.0000,72.1940" fill="none" stroke="#889196" stroke-width=".12" stroke-dasharray="1.5 1"/><polyline points="41.0000,86.1595 41.0000,85.3529 41.0000,84.5056 41.0000,83.6203 41.0000,82.6996 41.0000,81.7461 41.0000,80.7629 41.0000,79.7528 41.0000,78.7190 41.0000,77.6644 41.0000,76.5924 41.0000,75.5060 41.0000,74.4086 41.0000,73.3035 41.0000,72.1940" fill="none" stroke="#889196" stroke-width=".12" stroke-dasharray="1.5 1"/><polyline points="126.0000,86.1595 126.0000,85.3529 126.0000,84.5056 126.0000,83.6203 126.0000,82.6996 126.0000,81.7461 126.0000,80.7629 126.0000,79.7528 126.0000,78.7190 126.0000,77.6644 126.0000,76.5924 126.0000,75.5060 126.0000,74.4086 126.0000,73.3035 126.0000,72.1940" fill="none" stroke="#889196" stroke-width=".12" stroke-dasharray="1.5 1"/><polyline points="41.0000,71.8405 41.0000,72.1940" fill="none" stroke="#889196" stroke-width=".12" stroke-dasharray="1.5 1"/><polyline points="126.0000,71.8405 126.0000,72.1940" fill="none" stroke="#889196" stroke-width=".12" stroke-dasharray="1.5 1"/><polyline points="41.0000,86.1595 126.0000,86.1595" fill="none" stroke="#171c20" stroke-width=".24"/><polyline points="41.0000,71.8405 126.0000,71.8405" fill="none" stroke="#171c20" stroke-width=".24"/><polyline points="41.0000,71.8405 41.0000,86.1595" fill="none" stroke="#171c20" stroke-width=".24"/><polyline points="126.0000,71.8405 126.0000,86.1595" fill="none" stroke="#171c20" stroke-width=".24"/><path d="M41.0000,86.1595 L41.0000,91.1595" fill="none" stroke="#171c20" stroke-width="0.15"/><path d="M126.0000,86.1595 L126.0000,91.1595" fill="none" stroke="#171c20" stroke-width="0.15"/><path d="M41.0000,93.1595 L126.0000,93.1595" fill="none" stroke="#171c20" stroke-width="0.18"/><path d="M41.0000,93.1595 L43.0000,92.1595" fill="none" stroke="#171c20" stroke-width="0.18"/><path d="M41.0000,93.1595 L43.0000,94.1595" fill="none" stroke="#171c20" stroke-width="0.18"/><path d="M126.0000,93.1595 L124.0000,92.1595" fill="none" stroke="#171c20" stroke-width="0.18"/><path d="M126.0000,93.1595 L124.0000,94.1595" fill="none" stroke="#171c20" stroke-width="0.18"/><text x="83.5" y="91.359455" font-family="DejaVu Sans" font-size="2.8" text-anchor="middle" fill="#171c20">170*</text><path d="M41.0000,71.8405 L37.0000,71.8405" fill="none" stroke="#171c20" stroke-width="0.15"/><path d="M41.0000,86.1595 L37.0000,86.1595" fill="none" stroke="#171c20" stroke-width="0.15"/><path d="M35.0000,71.8405 L35.0000,86.1595" fill="none" stroke="#171c20" stroke-width="0.18"/><path d="M35.0000,71.8405 L34.0000,73.8405" fill="none" stroke="#171c20" stroke-width="0.18"/><path d="M35.0000,71.8405 L36.0000,73.8405" fill="none" stroke="#171c20" stroke-width="0.18"/><path d="M35.0000,86.1595 L34.0000,84.1595" fill="none" stroke="#171c20" stroke-width="0.18"/><path d="M35.0000,86.1595 L36.0000,84.1595" fill="none" stroke="#171c20" stroke-width="0.18"/><text x="33.0" y="79.0" font-family="DejaVu Sans" font-size="2.8" text-anchor="end" fill="#171c20">28.64*</text><text x="158" y="44" font-family="DejaVu Sans" font-size="2.8" text-anchor="start" fill="#171c20" font-weight="bold">Вид по +Y · X/Z · М 1:2</text><polyline points="176.0000,68.8765 176.0000,89.1235" fill="none" stroke="#889196" stroke-width=".12" stroke-dasharray="1.5 1"/><polyline points="261.0000,68.8765 261.0000,89.1235" fill="none" stroke="#889196" stroke-width=".12" stroke-dasharray="1.5 1"/><polyline points="176.0000,89.1235 261.0000,89.1235" fill="none" stroke="#171c20" stroke-width=".24"/><polyline points="176.0000,83.1955 261.0000,83.1955" fill="none" stroke="#171c20" stroke-width=".24"/><polyline points="176.0000,83.1955 176.0000,83.9590 176.0000,84.6771 176.0000,85.3477 176.0000,85.9688 176.0000,86.5384 176.0000,87.0549 176.0000,87.5168 176.0000,87.9225 176.0000,88.2710 176.0000,88.5611 176.0000,88.7920 176.0000,88.9630 176.0000,89.0736 176.0000,89.1235" fill="none" stroke="#171c20" stroke-width=".24"/><polyline points="261.0000,83.1955 261.0000,83.9590 261.0000,84.6771 261.0000,85.3477 261.0000,85.9688 261.0000,86.5384 261.0000,87.0549 261.0000,87.5168 261.0000,87.9225 261.0000,88.2710 261.0000,88.5611 261.0000,88.7920 261.0000,88.9630 261.0000,89.0736 261.0000,89.1235" fill="none" stroke="#171c20" stroke-width=".24"/><polyline points="176.0000,68.8765 261.0000,68.8765" fill="none" stroke="#171c20" stroke-width=".24"/><polyline points="176.0000,68.8765 176.0000,83.1955" fill="none" stroke="#171c20" stroke-width=".24"/><polyline points="261.0000,68.8765 261.0000,83.1955" fill="none" stroke="#171c20" stroke-width=".24"/><path d="M176.0000,89.1235 L176.0000,94.1235" fill="none" stroke="#171c20" stroke-width="0.15"/><path d="M261.0000,89.1235 L261.0000,94.1235" fill="none" stroke="#171c20" stroke-width="0.15"/><path d="M176.0000,96.1235 L261.0000,96.1235" fill="none" stroke="#171c20" stroke-width="0.18"/><path d="M176.0000,96.1235 L178.0000,95.1235" fill="none" stroke="#171c20" stroke-width="0.18"/><path d="M176.0000,96.1235 L178.0000,97.1235" fill="none" stroke="#171c20" stroke-width="0.18"/><path d="M261.0000,96.1235 L259.0000,95.1235" fill="none" stroke="#171c20" stroke-width="0.18"/><path d="M261.0000,96.1235 L259.0000,97.1235" fill="none" stroke="#171c20" stroke-width="0.18"/><text x="218.5" y="94.3234575" font-family="DejaVu Sans" font-size="2.8" text-anchor="middle" fill="#171c20">170*</text><path d="M176.0000,68.8765 L172.0000,68.8765" fill="none" stroke="#171c20" stroke-width="0.15"/><path d="M176.0000,89.1235 L172.0000,89.1235" fill="none" stroke="#171c20" stroke-width="0.15"/><path d="M170.0000,68.8765 L170.0000,89.1235" fill="none" stroke="#171c20" stroke-width="0.18"/><path d="M170.0000,68.8765 L169.0000,70.8765" fill="none" stroke="#171c20" stroke-width="0.18"/><path d="M170.0000,68.8765 L171.0000,70.8765" fill="none" stroke="#171c20" stroke-width="0.18"/><path d="M170.0000,89.1235 L169.0000,87.1235" fill="none" stroke="#171c20" stroke-width="0.18"/><path d="M170.0000,89.1235 L171.0000,87.1235" fill="none" stroke="#171c20" stroke-width="0.18"/><text x="168.0" y="79.0" font-family="DejaVu Sans" font-size="2.8" text-anchor="end" fill="#171c20">40.49*</text><text x="23" y="134" font-family="DejaVu Sans" font-size="2.8" text-anchor="start" fill="#171c20" font-weight="bold">Вид по −X · Y/Z · М 1:1</text><polyline points="69.1811,177.3909 71.2485,179.3188 73.4454,181.0978 75.7610,182.7192 78.1841,184.1752 80.7029,185.4585 83.3050,186.5631 85.9779,187.4834 88.7084,188.2151 91.4833,188.7545 94.2891,189.0990 97.1121,189.2469" fill="none" stroke="#889196" stroke-width=".12" stroke-dasharray="1.5 1"/><polyline points="97.8189,148.7531 97.1121,189.2469" fill="none" stroke="#889196" stroke-width=".12" stroke-dasharray="1.5 1"/><polyline points="97.8189,148.7531 69.1811,177.3909" fill="none" stroke="#889196" stroke-width=".12" stroke-dasharray="1.5 1"/><polyline points="69.1811,177.3909 71.2485,179.3188 73.4454,181.0978 75.7610,182.7192 78.1841,184.1752 80.7029,185.4585 83.3050,186.5631 85.9779,187.4834 88.7084,188.2151 91.4833,188.7545 94.2891,189.0990 97.1121,189.2469" fill="none" stroke="#171c20" stroke-width=".24"/><polyline points="97.8189,148.7531 97.1121,189.2469" fill="none" stroke="#171c20" stroke-width=".24"/><polyline points="97.8189,148.7531 69.1811,177.3909" fill="none" stroke="#171c20" stroke-width=".24"/><path d="M69.1811,189.2469 L69.1811,194.2469" fill="none" stroke="#171c20" stroke-width="0.15"/><path d="M97.8189,189.2469 L97.8189,194.2469" fill="none" stroke="#171c20" stroke-width="0.15"/><path d="M69.1811,196.2469 L97.8189,196.2469" fill="none" stroke="#171c20" stroke-width="0.18"/><path d="M69.1811,196.2469 L71.1811,195.2469" fill="none" stroke="#171c20" stroke-width="0.18"/><path d="M69.1811,196.2469 L71.1811,197.2469" fill="none" stroke="#171c20" stroke-width="0.18"/><path d="M97.8189,196.2469 L95.8189,195.2469" fill="none" stroke="#171c20" stroke-width="0.18"/><path d="M97.8189,196.2469 L95.8189,197.2469" fill="none" stroke="#171c20" stroke-width="0.18"/><text x="83.5" y="194.446915" font-family="DejaVu Sans" font-size="2.8" text-anchor="middle" fill="#171c20">28.64*</text><path d="M69.1811,148.7531 L65.1811,148.7531" fill="none" stroke="#171c20" stroke-width="0.15"/><path d="M69.1811,189.2469 L65.1811,189.2469" fill="none" stroke="#171c20" stroke-width="0.15"/><path d="M63.1811,148.7531 L63.1811,189.2469" fill="none" stroke="#171c20" stroke-width="0.18"/><path d="M63.1811,148.7531 L62.1811,150.7531" fill="none" stroke="#171c20" stroke-width="0.18"/><path d="M63.1811,148.7531 L64.1811,150.7531" fill="none" stroke="#171c20" stroke-width="0.18"/><path d="M63.1811,189.2469 L62.1811,187.2469" fill="none" stroke="#171c20" stroke-width="0.18"/><path d="M63.1811,189.2469 L64.1811,187.2469" fill="none" stroke="#171c20" stroke-width="0.18"/><text x="61.18109" y="169.0" font-family="DejaVu Sans" font-size="2.8" text-anchor="end" fill="#171c20">40.49*</text><text x="158" y="134" font-family="DejaVu Sans" font-size="2.8" text-anchor="start" fill="#171c20" font-weight="bold">Аксонометрия · М 1:2</text><polyline points="193.5105,188.6985 253.6145,153.9974" fill="none" stroke="#889196" stroke-width=".12" stroke-dasharray="1.5 1"/><polyline points="193.5105,188.6985 192.5795,187.1768 191.5783,185.7142 190.5180,184.3253 189.4100,183.0231 188.2668,181.8188 187.1006,180.7213 185.9236,179.7374 184.7473,178.8714 184.1920,178.5020 183.6354,178.1569" fill="none" stroke="#889196" stroke-width=".12" stroke-dasharray="1.5 1"/><polyline points="183.3855,194.5442 193.5105,188.6985" fill="none" stroke="#889196" stroke-width=".12" stroke-dasharray="1.5 1"/><polyline points="183.6354,178.1569 243.7394,143.4558" fill="none" stroke="#171c20" stroke-width=".24"/><polyline points="253.6145,153.9974 252.6835,152.4757 251.6824,151.0131 250.6220,149.6242 249.5141,148.3220 248.3709,147.1177 247.2047,146.0202 246.0277,145.0363 244.8514,144.1702 244.2960,143.8009 243.7394,143.4558" fill="none" stroke="#171c20" stroke-width=".24"/><polyline points="183.3855,194.5442 243.4895,159.8431" fill="none" stroke="#171c20" stroke-width=".24"/><polyline points="183.3855,194.5442 183.6354,178.1569" fill="none" stroke="#171c20" stroke-width=".24"/><polyline points="243.4895,159.8431 243.7394,143.4558" fill="none" stroke="#171c20" stroke-width=".24"/><polyline points="243.4895,159.8431 253.6145,153.9974" fill="none" stroke="#171c20" stroke-width=".24"/><path d="M288.0000,35.0000 L288.0000,235.0000" fill="none" stroke="#171c20" stroke-width="0.18"/><text x="295" y="42.0" font-family="DejaVu Sans" font-size="3.2" text-anchor="start" fill="#171c20">Габарит / резерв / условная укладка</text><text x="295" y="50.64" font-family="DejaVu Sans" font-size="2.8" text-anchor="start" fill="#171c20">1. Размеры номинальные из CAD D01. Общие допуски, шероховатость и</text><text x="295" y="54.7" font-family="DejaVu Sans" font-size="2.8" text-anchor="start" fill="#171c20">посадки не назначены.</text><text x="295" y="61.76" font-family="DejaVu Sans" font-size="2.8" text-anchor="start" fill="#171c20">2. Масса расчётная; плотность либо назначенная масса взяты из</text><text x="295" y="65.82" font-family="DejaVu Sans" font-size="2.8" text-anchor="start" fill="#171c20">ведомости.</text><text x="295" y="72.88" font-family="DejaVu Sans" font-size="2.8" text-anchor="start" fill="#171c20">3. Не использовать этот лист для изготовления покупного изделия или</text><text x="295" y="76.94" font-family="DejaVu Sans" font-size="2.8" text-anchor="start" fill="#171c20">раскроя ткани.</text><text x="15" y="224" font-family="DejaVu Sans" font-size="3.2" text-anchor="start" fill="#171c20">Локальный габарит X × Y × Z: 170 × 28.64 × 40.49 мм</text><text x="15" y="233.0" font-family="DejaVu Sans" font-size="2.7" text-anchor="start" fill="#171c20">Ориентация листа: Rx 0°; затем перенос начала в (630; -28.64; -40.49) мм повернутой сборки.</text><text x="12" y="258.0" font-family="DejaVu Sans" font-size="3" text-anchor="start" fill="#171c20">Материал / массовая модель: Assembly: assigned mass; density N/A</text><text x="12" y="271" font-family="DejaVu Sans" font-size="3" text-anchor="start" fill="#171c20">Позиция 149 · Кол. 1 · Масса 28.750 г · Тел 1 · Размеры со * — справочные</text><text x="250" y="279" font-family="DejaVu Sans" font-size="2.8" text-anchor="start" fill="#171c20">Утвердил: —  |  Технология: —  |  Допуски: —</text></svg>