<svg xmlns="http://www.w3.org/2000/svg" width="420mm" height="297mm" viewBox="0 0 420 297"><rect width="420" height="297" fill="white"/><rect x="5" y="5" width="410" height="287" fill="none" stroke="#171c20" stroke-width=".3"/><path d="M5.0000,30.0000 L415.0000,30.0000" fill="none" stroke="#171c20" stroke-width="0.25"/><path d="M5.0000,243.0000 L415.0000,243.0000" fill="none" stroke="#171c20" stroke-width="0.25"/><text x="12" y="14" font-family="DejaVu Sans" font-size="5" text-anchor="start" fill="#171c20" font-weight="bold">PLBP-D01-P029</text><text x="408" y="14" font-family="DejaVu Sans" font-size="3" text-anchor="end" fill="#171c20">D01 / DW01 · 01.10.2026</text><text x="12" y="22.0" font-family="DejaVu Sans" font-size="3.6" text-anchor="start" fill="#171c20">M01 продольная опора полки 2</text><text x="12" y="250" font-family="DejaVu Sans" font-size="3.2" text-anchor="start" fill="#171c20" font-weight="bold">ПРОЕКТНЫЙ ЧЕРТЁЖ · НОМИНАЛЬНАЯ ГЕОМЕТРИЯ · НЕ ВЫПУЩЕНО В ПРОИЗВОДСТВО</text><text x="12" y="286" font-family="DejaVu Sans" font-size="3" text-anchor="start" fill="#171c20">PLBP-SG1 · Супер ГИРД | A3: 420 × 297 мм | Размеры: мм | Печатать 100%</text><text x="408" y="286" font-family="DejaVu Sans" font-size="3" text-anchor="end" fill="#171c20">Лист 1/1</text><text x="23" y="44" font-family="DejaVu Sans" font-size="2.8" text-anchor="start" fill="#171c20" font-weight="bold">Вид по −Z · X/Y · М 1:1</text><polyline points="49.0000,80.5000 49.0000,77.5000" fill="none" stroke="#889196" stroke-width=".12" stroke-dasharray="1.5 1"/><polyline points="118.0000,80.5000 118.0000,77.5000" fill="none" stroke="#889196" stroke-width=".12" stroke-dasharray="1.5 1"/><polyline points="49.0000,80.5000 118.0000,80.5000" fill="none" stroke="#889196" stroke-width=".12" stroke-dasharray="1.5 1"/><polyline points="49.0000,77.5000 118.0000,77.5000" fill="none" stroke="#889196" stroke-width=".12" stroke-dasharray="1.5 1"/><polyline points="49.0000,80.5000 49.0000,77.5000" fill="none" stroke="#171c20" stroke-width=".24"/><polyline points="118.0000,80.5000 118.0000,77.5000" fill="none" stroke="#171c20" stroke-width=".24"/><polyline points="49.0000,80.5000 118.0000,80.5000" fill="none" stroke="#171c20" stroke-width=".24"/><polyline points="49.0000,77.5000 118.0000,77.5000" fill="none" stroke="#171c20" stroke-width=".24"/><path d="M49.0000,80.5000 L49.0000,85.5000" fill="none" stroke="#171c20" stroke-width="0.15"/><path d="M118.0000,80.5000 L118.0000,85.5000" fill="none" stroke="#171c20" stroke-width="0.15"/><path d="M49.0000,87.5000 L118.0000,87.5000" fill="none" stroke="#171c20" stroke-width="0.18"/><path d="M49.0000,87.5000 L51.0000,86.5000" fill="none" stroke="#171c20" stroke-width="0.18"/><path d="M49.0000,87.5000 L51.0000,88.5000" fill="none" stroke="#171c20" stroke-width="0.18"/><path d="M118.0000,87.5000 L116.0000,86.5000" fill="none" stroke="#171c20" stroke-width="0.18"/><path d="M118.0000,87.5000 L116.0000,88.5000" fill="none" stroke="#171c20" stroke-width="0.18"/><text x="83.5" y="85.7" font-family="DejaVu Sans" font-size="2.8" text-anchor="middle" fill="#171c20">69*</text><path d="M49.0000,77.5000 L45.0000,77.5000" fill="none" stroke="#171c20" stroke-width="0.15"/><path d="M49.0000,80.5000 L45.0000,80.5000" fill="none" stroke="#171c20" stroke-width="0.15"/><path d="M43.0000,77.5000 L43.0000,80.5000" fill="none" stroke="#171c20" stroke-width="0.18"/><path d="M43.0000,77.5000 L42.0000,79.5000" fill="none" stroke="#171c20" stroke-width="0.18"/><path d="M43.0000,77.5000 L44.0000,79.5000" fill="none" stroke="#171c20" stroke-width="0.18"/><path d="M43.0000,80.5000 L42.0000,78.5000" fill="none" stroke="#171c20" stroke-width="0.18"/><path d="M43.0000,80.5000 L44.0000,78.5000" fill="none" stroke="#171c20" stroke-width="0.18"/><text x="41.0" y="79.0" font-family="DejaVu Sans" font-size="2.8" text-anchor="end" fill="#171c20">3*</text><text x="158" y="44" font-family="DejaVu Sans" font-size="2.8" text-anchor="start" fill="#171c20" font-weight="bold">Вид по +Y · X/Z · М 1:1</text><polyline points="184.0000,88.0000 184.0000,70.0000" fill="none" stroke="#889196" stroke-width=".12" stroke-dasharray="1.5 1"/><polyline points="253.0000,88.0000 253.0000,70.0000" fill="none" stroke="#889196" stroke-width=".12" stroke-dasharray="1.5 1"/><polyline points="184.0000,88.0000 253.0000,88.0000" fill="none" stroke="#889196" stroke-width=".12" stroke-dasharray="1.5 1"/><polyline points="184.0000,70.0000 253.0000,70.0000" fill="none" stroke="#889196" stroke-width=".12" stroke-dasharray="1.5 1"/><polyline points="184.0000,88.0000 184.0000,70.0000" fill="none" stroke="#171c20" stroke-width=".24"/><polyline points="253.0000,88.0000 253.0000,70.0000" fill="none" stroke="#171c20" stroke-width=".24"/><polyline points="184.0000,88.0000 253.0000,88.0000" fill="none" stroke="#171c20" stroke-width=".24"/><polyline points="184.0000,70.0000 253.0000,70.0000" fill="none" stroke="#171c20" stroke-width=".24"/><path d="M184.0000,88.0000 L184.0000,93.0000" fill="none" stroke="#171c20" stroke-width="0.15"/><path d="M253.0000,88.0000 L253.0000,93.0000" fill="none" stroke="#171c20" stroke-width="0.15"/><path d="M184.0000,95.0000 L253.0000,95.0000" fill="none" stroke="#171c20" stroke-width="0.18"/><path d="M184.0000,95.0000 L186.0000,94.0000" fill="none" stroke="#171c20" stroke-width="0.18"/><path d="M184.0000,95.0000 L186.0000,96.0000" fill="none" stroke="#171c20" stroke-width="0.18"/><path d="M253.0000,95.0000 L251.0000,94.0000" fill="none" stroke="#171c20" stroke-width="0.18"/><path d="M253.0000,95.0000 L251.0000,96.0000" fill="none" stroke="#171c20" stroke-width="0.18"/><text x="218.5" y="93.2" font-family="DejaVu Sans" font-size="2.8" text-anchor="middle" fill="#171c20">69*</text><path d="M184.0000,70.0000 L180.0000,70.0000" fill="none" stroke="#171c20" stroke-width="0.15"/><path d="M184.0000,88.0000 L180.0000,88.0000" fill="none" stroke="#171c20" stroke-width="0.15"/><path d="M178.0000,70.0000 L178.0000,88.0000" fill="none" stroke="#171c20" stroke-width="0.18"/><path d="M178.0000,70.0000 L177.0000,72.0000" fill="none" stroke="#171c20" stroke-width="0.18"/><path d="M178.0000,70.0000 L179.0000,72.0000" fill="none" stroke="#171c20" stroke-width="0.18"/><path d="M178.0000,88.0000 L177.0000,86.0000" fill="none" stroke="#171c20" stroke-width="0.18"/><path d="M178.0000,88.0000 L179.0000,86.0000" fill="none" stroke="#171c20" stroke-width="0.18"/><text x="176.0" y="79.0" font-family="DejaVu Sans" font-size="2.8" text-anchor="end" fill="#171c20">18*</text><text x="23" y="134" font-family="DejaVu Sans" font-size="2.8" text-anchor="start" fill="#171c20" font-weight="bold">Вид по −X · Y/Z · М 2:1</text><polyline points="80.5000,187.0000 80.5000,151.0000" fill="none" stroke="#889196" stroke-width=".12" stroke-dasharray="1.5 1"/><polyline points="80.5000,151.0000 86.5000,151.0000" fill="none" stroke="#889196" stroke-width=".12" stroke-dasharray="1.5 1"/><polyline points="86.5000,187.0000 86.5000,151.0000" fill="none" stroke="#889196" stroke-width=".12" stroke-dasharray="1.5 1"/><polyline points="80.5000,187.0000 86.5000,187.0000" fill="none" stroke="#889196" stroke-width=".12" stroke-dasharray="1.5 1"/><polyline points="80.5000,187.0000 80.5000,151.0000" fill="none" stroke="#171c20" stroke-width=".24"/><polyline points="80.5000,151.0000 86.5000,151.0000" fill="none" stroke="#171c20" stroke-width=".24"/><polyline points="86.5000,187.0000 86.5000,151.0000" fill="none" stroke="#171c20" stroke-width=".24"/><polyline points="80.5000,187.0000 86.5000,187.0000" fill="none" stroke="#171c20" stroke-width=".24"/><path d="M80.5000,187.0000 L80.5000,192.0000" fill="none" stroke="#171c20" stroke-width="0.15"/><path d="M86.5000,187.0000 L86.5000,192.0000" fill="none" stroke="#171c20" stroke-width="0.15"/><path d="M80.5000,194.0000 L86.5000,194.0000" fill="none" stroke="#171c20" stroke-width="0.18"/><path d="M80.5000,194.0000 L82.5000,193.0000" fill="none" stroke="#171c20" stroke-width="0.18"/><path d="M80.5000,194.0000 L82.5000,195.0000" fill="none" stroke="#171c20" stroke-width="0.18"/><path d="M86.5000,194.0000 L84.5000,193.0000" fill="none" stroke="#171c20" stroke-width="0.18"/><path d="M86.5000,194.0000 L84.5000,195.0000" fill="none" stroke="#171c20" stroke-width="0.18"/><text x="83.5" y="192.2" font-family="DejaVu Sans" font-size="2.8" text-anchor="middle" fill="#171c20">3*</text><path d="M80.5000,151.0000 L76.5000,151.0000" fill="none" stroke="#171c20" stroke-width="0.15"/><path d="M80.5000,187.0000 L76.5000,187.0000" fill="none" stroke="#171c20" stroke-width="0.15"/><path d="M74.5000,151.0000 L74.5000,187.0000" fill="none" stroke="#171c20" stroke-width="0.18"/><path d="M74.5000,151.0000 L73.5000,153.0000" fill="none" stroke="#171c20" stroke-width="0.18"/><path d="M74.5000,151.0000 L75.5000,153.0000" fill="none" stroke="#171c20" stroke-width="0.18"/><path d="M74.5000,187.0000 L73.5000,185.0000" fill="none" stroke="#171c20" stroke-width="0.18"/><path d="M74.5000,187.0000 L75.5000,185.0000" fill="none" stroke="#171c20" stroke-width="0.18"/><text x="72.5" y="169.0" font-family="DejaVu Sans" font-size="2.8" text-anchor="end" fill="#171c20">18*</text><text x="158" y="134" font-family="DejaVu Sans" font-size="2.8" text-anchor="start" fill="#171c20" font-weight="bold">Аксонометрия · М 1:1</text><polyline points="195.1655,176.3485 195.1655,191.0454" fill="none" stroke="#889196" stroke-width=".12" stroke-dasharray="1.5 1"/><polyline points="195.1655,176.3485 193.0442,175.1237" fill="none" stroke="#889196" stroke-width=".12" stroke-dasharray="1.5 1"/><polyline points="195.1655,176.3485 243.9558,148.1793" fill="none" stroke="#889196" stroke-width=".12" stroke-dasharray="1.5 1"/><polyline points="195.1655,191.0454 193.0442,189.8207" fill="none" stroke="#171c20" stroke-width=".24"/><polyline points="193.0442,175.1237 193.0442,189.8207" fill="none" stroke="#171c20" stroke-width=".24"/><polyline points="243.9558,148.1793 243.9558,162.8763" fill="none" stroke="#171c20" stroke-width=".24"/><polyline points="243.9558,162.8763 241.8345,161.6515" fill="none" stroke="#171c20" stroke-width=".24"/><polyline points="241.8345,146.9546 241.8345,161.6515" fill="none" stroke="#171c20" stroke-width=".24"/><polyline points="243.9558,148.1793 241.8345,146.9546" fill="none" stroke="#171c20" stroke-width=".24"/><polyline points="195.1655,191.0454 243.9558,162.8763" fill="none" stroke="#171c20" stroke-width=".24"/><polyline points="193.0442,175.1237 241.8345,146.9546" fill="none" stroke="#171c20" stroke-width=".24"/><polyline points="193.0442,189.8207 241.8345,161.6515" fill="none" stroke="#171c20" stroke-width=".24"/><path d="M288.0000,35.0000 L288.0000,235.0000" fill="none" stroke="#171c20" stroke-width="0.18"/><text x="295" y="42.0" font-family="DejaVu Sans" font-size="3.2" text-anchor="start" fill="#171c20">Проектная деталь · материал и допуски уточнить</text><text x="295" y="50.64" font-family="DejaVu Sans" font-size="2.8" text-anchor="start" fill="#171c20">1. Размеры номинальные из CAD D01. Общие допуски, шероховатость и</text><text x="295" y="54.7" font-family="DejaVu Sans" font-size="2.8" text-anchor="start" fill="#171c20">посадки не назначены.</text><text x="295" y="61.76" font-family="DejaVu Sans" font-size="2.8" text-anchor="start" fill="#171c20">2. Масса расчётная; плотность либо назначенная масса взяты из</text><text x="295" y="65.82" font-family="DejaVu Sans" font-size="2.8" text-anchor="start" fill="#171c20">ведомости.</text><text x="295" y="72.88" font-family="DejaVu Sans" font-size="2.8" text-anchor="start" fill="#171c20">3. Контуры получены проекцией BRep. Перед изготовлением: выпуск</text><text x="295" y="76.94" font-family="DejaVu Sans" font-size="2.8" text-anchor="start" fill="#171c20">допусков, технологии и проверка креплений.</text><text x="15" y="224" font-family="DejaVu Sans" font-size="3.2" text-anchor="start" fill="#171c20">Локальный габарит X × Y × Z: 69 × 3 × 18 мм</text><text x="15" y="233.0" font-family="DejaVu Sans" font-size="2.7" text-anchor="start" fill="#171c20">Ориентация листа: Rx 0°; затем перенос начала в (947; 15; -34) мм повернутой сборки.</text><text x="12" y="258.0" font-family="DejaVu Sans" font-size="3" text-anchor="start" fill="#171c20">Материал / массовая модель: PETG prototype rho1.27</text><text x="12" y="271" font-family="DejaVu Sans" font-size="3" text-anchor="start" fill="#171c20">Позиция 029 · Кол. 1 · Масса 4.732 г · Тел 1 · Размеры со * — справочные</text><text x="250" y="279" font-family="DejaVu Sans" font-size="2.8" text-anchor="start" fill="#171c20">Утвердил: —  |  Технология: —  |  Допуски: —</text></svg>