<svg xmlns="http://www.w3.org/2000/svg" width="420mm" height="297mm" viewBox="0 0 420 297"><rect width="420" height="297" fill="white"/><rect x="5" y="5" width="410" height="287" fill="none" stroke="#171c20" stroke-width=".3"/><path d="M5.0000,30.0000 L415.0000,30.0000" fill="none" stroke="#171c20" stroke-width="0.25"/><path d="M5.0000,243.0000 L415.0000,243.0000" fill="none" stroke="#171c20" stroke-width="0.25"/><text x="12" y="14" font-family="DejaVu Sans" font-size="5" text-anchor="start" fill="#171c20" font-weight="bold">PLBP-D01-P172</text><text x="408" y="14" font-family="DejaVu Sans" font-size="3" text-anchor="end" fill="#171c20">D01 / DW01 · 01.10.2026</text><text x="12" y="22.0" font-family="DejaVu Sans" font-size="3.6" text-anchor="start" fill="#171c20">Моторный отсек · кольцо с технологическими отверстиями 2</text><text x="12" y="250" font-family="DejaVu Sans" font-size="3.2" text-anchor="start" fill="#171c20" font-weight="bold">ПРОЕКТНЫЙ ЧЕРТЁЖ · НОМИНАЛЬНАЯ ГЕОМЕТРИЯ · НЕ ВЫПУЩЕНО В ПРОИЗВОДСТВО</text><text x="12" y="286" font-family="DejaVu Sans" font-size="3" text-anchor="start" fill="#171c20">PLBP-SG1 · Супер ГИРД | A3: 420 × 297 мм | Размеры: мм | Печатать 100%</text><text x="408" y="286" font-family="DejaVu Sans" font-size="3" text-anchor="end" fill="#171c20">Лист 1/2</text><text x="23" y="44" font-family="DejaVu Sans" font-size="2.8" text-anchor="start" fill="#171c20" font-weight="bold">Вид по −Z · X/Y · М 1:2</text><polyline points="82.0000,79.0000 82.0000,76.2961 82.0000,73.6261 82.0000,71.0238 82.0000,68.5217 82.0000,66.1514 82.0000,63.9427 82.0000,61.9234 82.0000,60.1188 82.0000,58.5516 82.0000,57.2416 82.0000,56.2052 82.0000,55.4555 82.0000,55.0018 82.0000,54.8500" fill="none" stroke="#889196" stroke-width=".12" stroke-dasharray="1.5 1"/><polyline points="82.0000,103.1500 82.0000,102.9981 82.0000,102.5445 82.0000,101.7948 82.0000,100.7584 82.0000,99.4484 82.0000,97.8812 82.0000,96.0766 82.0000,94.0573 82.0000,91.8486 82.0000,89.4783 82.0000,86.9762 82.0000,84.3739 82.0000,81.7039 82.0000,79.0000" fill="none" stroke="#889196" stroke-width=".12" stroke-dasharray="1.5 1"/><polyline points="85.0000,79.0000 85.0000,76.2961 85.0000,73.6261 85.0000,71.0238 85.0000,68.5217 85.0000,66.1514 85.0000,63.9427 85.0000,61.9234 85.0000,60.1188 85.0000,58.5516 85.0000,57.2416 85.0000,56.2052 85.0000,55.4555 85.0000,55.0018 85.0000,54.8500" fill="none" stroke="#889196" stroke-width=".12" stroke-dasharray="1.5 1"/><polyline points="85.0000,103.1500 85.0000,102.9981 85.0000,102.5445 85.0000,101.7948 85.0000,100.7584 85.0000,99.4484 85.0000,97.8812 85.0000,96.0766 85.0000,94.0573 85.0000,91.8486 85.0000,89.4783 85.0000,86.9762 85.0000,84.3739 85.0000,81.7039 85.0000,79.0000" fill="none" stroke="#889196" stroke-width=".12" stroke-dasharray="1.5 1"/><polyline points="82.0000,97.5000 82.0000,97.7239 82.0000,97.9450 82.0000,98.1606 82.0000,98.3678 82.0000,98.5641 82.0000,98.7470 82.0000,98.9142 82.0000,99.0637 82.0000,99.1934 82.0000,99.3019 82.0000,99.3878 82.0000,99.4499 82.0000,99.4874 82.0000,99.5000" fill="none" stroke="#889196" stroke-width=".12" stroke-dasharray="1.5 1"/><polyline points="82.0000,99.5000 82.0000,99.4499 82.0000,99.3019 82.0000,99.0637 82.0000,98.7470 82.0000,98.3678 82.0000,97.9450 82.0000,97.5000 82.0000,97.0550 82.0000,96.6322 82.0000,96.2530 82.0000,95.9363 82.0000,95.6981 82.0000,95.5501 82.0000,95.5000" fill="none" stroke="#889196" stroke-width=".12" stroke-dasharray="1.5 1"/><polyline points="82.0000,95.5000 82.0000,95.5126 82.0000,95.5501 82.0000,95.6122 82.0000,95.6981 82.0000,95.8066 82.0000,95.9363 82.0000,96.0858 82.0000,96.2530 82.0000,96.4359 82.0000,96.6322 82.0000,96.8394 82.0000,97.0550 82.0000,97.2761 82.0000,97.5000" fill="none" stroke="#889196" stroke-width=".12" stroke-dasharray="1.5 1"/><polyline points="82.0000,69.7500 82.0000,69.9739 82.0000,70.1950 82.0000,70.4106 82.0000,70.6178 82.0000,70.8141 82.0000,70.9970 82.0000,71.1642 82.0000,71.3137 82.0000,71.4434 82.0000,71.5519 82.0000,71.6378 82.0000,71.6999 82.0000,71.7374 82.0000,71.7500" fill="none" stroke="#889196" stroke-width=".12" stroke-dasharray="1.5 1"/><polyline points="82.0000,71.7500 82.0000,71.6999 82.0000,71.5519 82.0000,71.3137 82.0000,70.9970 82.0000,70.6178 82.0000,70.1950 82.0000,69.7500 82.0000,69.3050 82.0000,68.8822 82.0000,68.5030 82.0000,68.1863 82.0000,67.9481 82.0000,67.8001 82.0000,67.7500" fill="none" stroke="#889196" stroke-width=".12" stroke-dasharray="1.5 1"/><polyline points="82.0000,67.7500 82.0000,67.7626 82.0000,67.8001 82.0000,67.8622 82.0000,67.9481 82.0000,68.0566 82.0000,68.1863 82.0000,68.3358 82.0000,68.5030 82.0000,68.6859 82.0000,68.8822 82.0000,69.0894 82.0000,69.3050 82.0000,69.5261 82.0000,69.7500" fill="none" stroke="#889196" stroke-width=".12" stroke-dasharray="1.5 1"/><polyline points="82.0000,79.0000 82.0000,77.3709 82.0000,75.7623 82.0000,74.1944 82.0000,72.6870 82.0000,71.2589 82.0000,69.9282 82.0000,68.7116 82.0000,67.6243 82.0000,66.6802 82.0000,65.8909 82.0000,65.2665 82.0000,64.8148 82.0000,64.5415 82.0000,64.4500" fill="none" stroke="#889196" stroke-width=".12" stroke-dasharray="1.5 1"/><polyline points="82.0000,64.4500 82.0000,64.8148 82.0000,65.8909 82.0000,67.6243 82.0000,69.9282 82.0000,72.6870 82.0000,75.7623 82.0000,79.0000 82.0000,82.2377 82.0000,85.3130 82.0000,88.0718 82.0000,90.3757 82.0000,92.1091 82.0000,93.1852 82.0000,93.5500" fill="none" stroke="#889196" stroke-width=".12" stroke-dasharray="1.5 1"/><polyline points="82.0000,93.5500 82.0000,93.4585 82.0000,93.1852 82.0000,92.7335 82.0000,92.1091 82.0000,91.3198 82.0000,90.3757 82.0000,89.2884 82.0000,88.0718 82.0000,86.7411 82.0000,85.3130 82.0000,83.8056 82.0000,82.2377 82.0000,80.6291 82.0000,79.0000" fill="none" stroke="#889196" stroke-width=".12" stroke-dasharray="1.5 1"/><polyline points="82.0000,69.7500 82.0000,69.9739 82.0000,70.1950 82.0000,70.4106 82.0000,70.6178 82.0000,70.8141 82.0000,70.9970 82.0000,71.1642 82.0000,71.3137 82.0000,71.4434 82.0000,71.5519 82.0000,71.6378 82.0000,71.6999 82.0000,71.7374 82.0000,71.7500" fill="none" stroke="#889196" stroke-width=".12" stroke-dasharray="1.5 1"/><polyline points="82.0000,71.7500 82.0000,71.6999 82.0000,71.5519 82.0000,71.3137 82.0000,70.9970 82.0000,70.6178 82.0000,70.1950 82.0000,69.7500 82.0000,69.3050 82.0000,68.8822 82.0000,68.5030 82.0000,68.1863 82.0000,67.9481 82.0000,67.8001 82.0000,67.7500" fill="none" stroke="#889196" stroke-width=".12" stroke-dasharray="1.5 1"/><polyline points="82.0000,67.7500 82.0000,67.7626 82.0000,67.8001 82.0000,67.8622 82.0000,67.9481 82.0000,68.0566 82.0000,68.1863 82.0000,68.3358 82.0000,68.5030 82.0000,68.6859 82.0000,68.8822 82.0000,69.0894 82.0000,69.3050 82.0000,69.5261 82.0000,69.7500" fill="none" stroke="#889196" stroke-width=".12" stroke-dasharray="1.5 1"/><polyline points="85.0000,97.5000 85.0000,97.7239 85.0000,97.9450 85.0000,98.1606 85.0000,98.3678 85.0000,98.5641 85.0000,98.7470 85.0000,98.9142 85.0000,99.0637 85.0000,99.1934 85.0000,99.3019 85.0000,99.3878 85.0000,99.4499 85.0000,99.4874 85.0000,99.5000" fill="none" stroke="#889196" stroke-width=".12" stroke-dasharray="1.5 1"/><polyline points="85.0000,99.5000 85.0000,99.4499 85.0000,99.3019 85.0000,99.0637 85.0000,98.7470 85.0000,98.3678 85.0000,97.9450 85.0000,97.5000 85.0000,97.0550 85.0000,96.6322 85.0000,96.2530 85.0000,95.9363 85.0000,95.6981 85.0000,95.5501 85.0000,95.5000" fill="none" stroke="#889196" stroke-width=".12" stroke-dasharray="1.5 1"/><polyline points="85.0000,95.5000 85.0000,95.5126 85.0000,95.5501 85.0000,95.6122 85.0000,95.6981 85.0000,95.8066 85.0000,95.9363 85.0000,96.0858 85.0000,96.2530 85.0000,96.4359 85.0000,96.6322 85.0000,96.8394 85.0000,97.0550 85.0000,97.2761 85.0000,97.5000" fill="none" stroke="#889196" stroke-width=".12" stroke-dasharray="1.5 1"/><polyline points="85.0000,69.7500 85.0000,69.9739 85.0000,70.1950 85.0000,70.4106 85.0000,70.6178 85.0000,70.8141 85.0000,70.9970 85.0000,71.1642 85.0000,71.3137 85.0000,71.4434 85.0000,71.5519 85.0000,71.6378 85.0000,71.6999 85.0000,71.7374 85.0000,71.7500" fill="none" stroke="#889196" stroke-width=".12" stroke-dasharray="1.5 1"/><polyline points="85.0000,71.7500 85.0000,71.6999 85.0000,71.5519 85.0000,71.3137 85.0000,70.9970 85.0000,70.6178 85.0000,70.1950 85.0000,69.7500 85.0000,69.3050 85.0000,68.8822 85.0000,68.5030 85.0000,68.1863 85.0000,67.9481 85.0000,67.8001 85.0000,67.7500" fill="none" stroke="#889196" stroke-width=".12" stroke-dasharray="1.5 1"/><polyline points="85.0000,67.7500 85.0000,67.7626 85.0000,67.8001 85.0000,67.8622 85.0000,67.9481 85.0000,68.0566 85.0000,68.1863 85.0000,68.3358 85.0000,68.5030 85.0000,68.6859 85.0000,68.8822 85.0000,69.0894 85.0000,69.3050 85.0000,69.5261 85.0000,69.7500" fill="none" stroke="#889196" stroke-width=".12" stroke-dasharray="1.5 1"/><polyline points="85.0000,79.0000 85.0000,77.3709 85.0000,75.7623 85.0000,74.1944 85.0000,72.6870 85.0000,71.2589 85.0000,69.9282 85.0000,68.7116 85.0000,67.6243 85.0000,66.6802 85.0000,65.8909 85.0000,65.2665 85.0000,64.8148 85.0000,64.5415 85.0000,64.4500" fill="none" stroke="#889196" stroke-width=".12" stroke-dasharray="1.5 1"/><polyline points="85.0000,64.4500 85.0000,64.8148 85.0000,65.8909 85.0000,67.6243 85.0000,69.9282 85.0000,72.6870 85.0000,75.7623 85.0000,79.0000 85.0000,82.2377 85.0000,85.3130 85.0000,88.0718 85.0000,90.3757 85.0000,92.1091 85.0000,93.1852 85.0000,93.5500" fill="none" stroke="#889196" stroke-width=".12" stroke-dasharray="1.5 1"/><polyline points="85.0000,93.5500 85.0000,93.4585 85.0000,93.1852 85.0000,92.7335 85.0000,92.1091 85.0000,91.3198 85.0000,90.3757 85.0000,89.2884 85.0000,88.0718 85.0000,86.7411 85.0000,85.3130 85.0000,83.8056 85.0000,82.2377 85.0000,80.6291 85.0000,79.0000" fill="none" stroke="#889196" stroke-width=".12" stroke-dasharray="1.5 1"/><polyline points="85.0000,69.7500 85.0000,69.9739 85.0000,70.1950 85.0000,70.4106 85.0000,70.6178 85.0000,70.8141 85.0000,70.9970 85.0000,71.1642 85.0000,71.3137 85.0000,71.4434 85.0000,71.5519 85.0000,71.6378 85.0000,71.6999 85.0000,71.7374 85.0000,71.7500" fill="none" stroke="#889196" stroke-width=".12" stroke-dasharray="1.5 1"/><polyline points="85.0000,71.7500 85.0000,71.6999 85.0000,71.5519 85.0000,71.3137 85.0000,70.9970 85.0000,70.6178 85.0000,70.1950 85.0000,69.7500 85.0000,69.3050 85.0000,68.8822 85.0000,68.5030 85.0000,68.1863 85.0000,67.9481 85.0000,67.8001 85.0000,67.7500" fill="none" stroke="#889196" stroke-width=".12" stroke-dasharray="1.5 1"/><polyline points="85.0000,67.7500 85.0000,67.7626 85.0000,67.8001 85.0000,67.8622 85.0000,67.9481 85.0000,68.0566 85.0000,68.1863 85.0000,68.3358 85.0000,68.5030 85.0000,68.6859 85.0000,68.8822 85.0000,69.0894 85.0000,69.3050 85.0000,69.5261 85.0000,69.7500" fill="none" stroke="#889196" stroke-width=".12" stroke-dasharray="1.5 1"/><polyline points="85.0000,95.5000 82.0000,95.5000" fill="none" stroke="#889196" stroke-width=".12" stroke-dasharray="1.5 1"/><polyline points="85.0000,99.5000 82.0000,99.5000" fill="none" stroke="#889196" stroke-width=".12" stroke-dasharray="1.5 1"/><polyline points="85.0000,67.7500 82.0000,67.7500" fill="none" stroke="#889196" stroke-width=".12" stroke-dasharray="1.5 1"/><polyline points="85.0000,71.7500 82.0000,71.7500" fill="none" stroke="#889196" stroke-width=".12" stroke-dasharray="1.5 1"/><polyline points="85.0000,64.4500 82.0000,64.4500" fill="none" stroke="#889196" stroke-width=".12" stroke-dasharray="1.5 1"/><polyline points="85.0000,93.5500 82.0000,93.5500" fill="none" stroke="#889196" stroke-width=".12" stroke-dasharray="1.5 1"/><polyline points="85.0000,67.7500 82.0000,67.7500" fill="none" stroke="#889196" stroke-width=".12" stroke-dasharray="1.5 1"/><polyline points="85.0000,71.7500 82.0000,71.7500" fill="none" stroke="#889196" stroke-width=".12" stroke-dasharray="1.5 1"/><polyline points="82.0000,54.8500 82.0000,55.4555 82.0000,57.2416 82.0000,60.1188 82.0000,63.9427 82.0000,68.5217 82.0000,73.6261 82.0000,79.0000 82.0000,84.3739 82.0000,89.4783 82.0000,94.0573 82.0000,97.8812 82.0000,100.7584 82.0000,102.5445 82.0000,103.1500" fill="none" stroke="#171c20" stroke-width=".24"/><polyline points="85.0000,54.8500 85.0000,55.4555 85.0000,57.2416 85.0000,60.1188 85.0000,63.9427 85.0000,68.5217 85.0000,73.6261 85.0000,79.0000 85.0000,84.3739 85.0000,89.4783 85.0000,94.0573 85.0000,97.8812 85.0000,100.7584 85.0000,102.5445 85.0000,103.1500" fill="none" stroke="#171c20" stroke-width=".24"/><polyline points="85.0000,54.8500 82.0000,54.8500" fill="none" stroke="#171c20" stroke-width=".24"/><polyline points="85.0000,103.1500 82.0000,103.1500" fill="none" stroke="#171c20" stroke-width=".24"/><path d="M82.0000,103.1500 L82.0000,108.1500" fill="none" stroke="#171c20" stroke-width="0.15"/><path d="M85.0000,103.1500 L85.0000,108.1500" fill="none" stroke="#171c20" stroke-width="0.15"/><path d="M82.0000,110.1500 L85.0000,110.1500" fill="none" stroke="#171c20" stroke-width="0.18"/><path d="M82.0000,110.1500 L84.0000,109.1500" fill="none" stroke="#171c20" stroke-width="0.18"/><path d="M82.0000,110.1500 L84.0000,111.1500" fill="none" stroke="#171c20" stroke-width="0.18"/><path d="M85.0000,110.1500 L83.0000,109.1500" fill="none" stroke="#171c20" stroke-width="0.18"/><path d="M85.0000,110.1500 L83.0000,111.1500" fill="none" stroke="#171c20" stroke-width="0.18"/><text x="83.5" y="108.35000000000001" font-family="DejaVu Sans" font-size="2.8" text-anchor="middle" fill="#171c20">6*</text><path d="M82.0000,54.8500 L78.0000,54.8500" fill="none" stroke="#171c20" stroke-width="0.15"/><path d="M82.0000,103.1500 L78.0000,103.1500" fill="none" stroke="#171c20" stroke-width="0.15"/><path d="M76.0000,54.8500 L76.0000,103.1500" fill="none" stroke="#171c20" stroke-width="0.18"/><path d="M76.0000,54.8500 L75.0000,56.8500" fill="none" stroke="#171c20" stroke-width="0.18"/><path d="M76.0000,54.8500 L77.0000,56.8500" fill="none" stroke="#171c20" stroke-width="0.18"/><path d="M76.0000,103.1500 L75.0000,101.1500" fill="none" stroke="#171c20" stroke-width="0.18"/><path d="M76.0000,103.1500 L77.0000,101.1500" fill="none" stroke="#171c20" stroke-width="0.18"/><text x="74.0" y="79.0" font-family="DejaVu Sans" font-size="2.8" text-anchor="end" fill="#171c20">96.6*</text><text x="158" y="44" font-family="DejaVu Sans" font-size="2.8" text-anchor="start" fill="#171c20" font-weight="bold">Вид по +Y · X/Z · М 1:2</text><polyline points="217.0000,103.1500 217.0000,102.5445 217.0000,100.7584 217.0000,97.8812 217.0000,94.0573 217.0000,89.4783 217.0000,84.3739 217.0000,79.0000 217.0000,73.6261 217.0000,68.5217 217.0000,63.9427 217.0000,60.1188 217.0000,57.2416 217.0000,55.4555 217.0000,54.8500" fill="none" stroke="#889196" stroke-width=".12" stroke-dasharray="1.5 1"/><polyline points="220.0000,103.1500 220.0000,102.5445 220.0000,100.7584 220.0000,97.8812 220.0000,94.0573 220.0000,89.4783 220.0000,84.3739 220.0000,79.0000 220.0000,73.6261 220.0000,68.5217 220.0000,63.9427 220.0000,60.1188 220.0000,57.2416 220.0000,55.4555 220.0000,54.8500" fill="none" stroke="#889196" stroke-width=".12" stroke-dasharray="1.5 1"/><polyline points="217.0000,81.0000 217.0000,80.9499 217.0000,80.8019 217.0000,80.5637 217.0000,80.2470 217.0000,79.8678 217.0000,79.4450 217.0000,79.0000 217.0000,78.5550 217.0000,78.1322 217.0000,77.7530 217.0000,77.4363 217.0000,77.1981 217.0000,77.0501 217.0000,77.0000" fill="none" stroke="#889196" stroke-width=".12" stroke-dasharray="1.5 1"/><polyline points="217.0000,77.0000 217.0000,77.0501 217.0000,77.1981 217.0000,77.4363 217.0000,77.7530 217.0000,78.1322 217.0000,78.5550 217.0000,79.0000 217.0000,79.4450 217.0000,79.8678 217.0000,80.2470 217.0000,80.5637 217.0000,80.8019 217.0000,80.9499 217.0000,81.0000" fill="none" stroke="#889196" stroke-width=".12" stroke-dasharray="1.5 1"/><polyline points="217.0000,64.9785 217.0000,64.9284 217.0000,64.7805 217.0000,64.5422 217.0000,64.2255 217.0000,63.8463 217.0000,63.4236 217.0000,62.9785 217.0000,62.5335 217.0000,62.1108 217.0000,61.7315 217.0000,61.4149 217.0000,61.1766 217.0000,61.0287 217.0000,60.9785" fill="none" stroke="#889196" stroke-width=".12" stroke-dasharray="1.5 1"/><polyline points="217.0000,60.9785 217.0000,61.0287 217.0000,61.1766 217.0000,61.4149 217.0000,61.7315 217.0000,62.1108 217.0000,62.5335 217.0000,62.9785 217.0000,63.4236 217.0000,63.8463 217.0000,64.2255 217.0000,64.5422 217.0000,64.7805 217.0000,64.9284 217.0000,64.9785" fill="none" stroke="#889196" stroke-width=".12" stroke-dasharray="1.5 1"/><polyline points="217.0000,93.5500 217.0000,93.1852 217.0000,92.1091 217.0000,90.3757 217.0000,88.0718 217.0000,85.3130 217.0000,82.2377 217.0000,79.0000 217.0000,75.7623 217.0000,72.6870 217.0000,69.9282 217.0000,67.6243 217.0000,65.8909 217.0000,64.8148 217.0000,64.4500" fill="none" stroke="#889196" stroke-width=".12" stroke-dasharray="1.5 1"/><polyline points="217.0000,64.4500 217.0000,64.8148 217.0000,65.8909 217.0000,67.6243 217.0000,69.9282 217.0000,72.6870 217.0000,75.7623 217.0000,79.0000 217.0000,82.2377 217.0000,85.3130 217.0000,88.0718 217.0000,90.3757 217.0000,92.1091 217.0000,93.1852 217.0000,93.5500" fill="none" stroke="#889196" stroke-width=".12" stroke-dasharray="1.5 1"/><polyline points="217.0000,97.0215 217.0000,96.9713 217.0000,96.8234 217.0000,96.5851 217.0000,96.2685 217.0000,95.8892 217.0000,95.4665 217.0000,95.0215 217.0000,94.5764 217.0000,94.1537 217.0000,93.7745 217.0000,93.4578 217.0000,93.2195 217.0000,93.0716 217.0000,93.0215" fill="none" stroke="#889196" stroke-width=".12" stroke-dasharray="1.5 1"/><polyline points="217.0000,93.0215 217.0000,93.0716 217.0000,93.2195 217.0000,93.4578 217.0000,93.7745 217.0000,94.1537 217.0000,94.5764 217.0000,95.0215 217.0000,95.4665 217.0000,95.8892 217.0000,96.2685 217.0000,96.5851 217.0000,96.8234 217.0000,96.9713 217.0000,97.0215" fill="none" stroke="#889196" stroke-width=".12" stroke-dasharray="1.5 1"/><polyline points="220.0000,81.0000 220.0000,80.9499 220.0000,80.8019 220.0000,80.5637 220.0000,80.2470 220.0000,79.8678 220.0000,79.4450 220.0000,79.0000 220.0000,78.5550 220.0000,78.1322 220.0000,77.7530 220.0000,77.4363 220.0000,77.1981 220.0000,77.0501 220.0000,77.0000" fill="none" stroke="#889196" stroke-width=".12" stroke-dasharray="1.5 1"/><polyline points="220.0000,77.0000 220.0000,77.0501 220.0000,77.1981 220.0000,77.4363 220.0000,77.7530 220.0000,78.1322 220.0000,78.5550 220.0000,79.0000 220.0000,79.4450 220.0000,79.8678 220.0000,80.2470 220.0000,80.5637 220.0000,80.8019 220.0000,80.9499 220.0000,81.0000" fill="none" stroke="#889196" stroke-width=".12" stroke-dasharray="1.5 1"/><polyline points="220.0000,64.9785 220.0000,64.9284 220.0000,64.7805 220.0000,64.5422 220.0000,64.2255 220.0000,63.8463 220.0000,63.4236 220.0000,62.9785 220.0000,62.5335 220.0000,62.1108 220.0000,61.7315 220.0000,61.4149 220.0000,61.1766 220.0000,61.0287 220.0000,60.9785" fill="none" stroke="#889196" stroke-width=".12" stroke-dasharray="1.5 1"/><polyline points="220.0000,60.9785 220.0000,61.0287 220.0000,61.1766 220.0000,61.4149 220.0000,61.7315 220.0000,62.1108 220.0000,62.5335 220.0000,62.9785 220.0000,63.4236 220.0000,63.8463 220.0000,64.2255 220.0000,64.5422 220.0000,64.7805 220.0000,64.9284 220.0000,64.9785" fill="none" stroke="#889196" stroke-width=".12" stroke-dasharray="1.5 1"/><polyline points="220.0000,93.5500 220.0000,93.1852 220.0000,92.1091 220.0000,90.3757 220.0000,88.0718 220.0000,85.3130 220.0000,82.2377 220.0000,79.0000 220.0000,75.7623 220.0000,72.6870 220.0000,69.9282 220.0000,67.6243 220.0000,65.8909 220.0000,64.8148 220.0000,64.4500" fill="none" stroke="#889196" stroke-width=".12" stroke-dasharray="1.5 1"/><polyline points="220.0000,64.4500 220.0000,64.8148 220.0000,65.8909 220.0000,67.6243 220.0000,69.9282 220.0000,72.6870 220.0000,75.7623 220.0000,79.0000 220.0000,82.2377 220.0000,85.3130 220.0000,88.0718 220.0000,90.3757 220.0000,92.1091 220.0000,93.1852 220.0000,93.5500" fill="none" stroke="#889196" stroke-width=".12" stroke-dasharray="1.5 1"/><polyline points="220.0000,97.0215 220.0000,96.9713 220.0000,96.8234 220.0000,96.5851 220.0000,96.2685 220.0000,95.8892 220.0000,95.4665 220.0000,95.0215 220.0000,94.5764 220.0000,94.1537 220.0000,93.7745 220.0000,93.4578 220.0000,93.2195 220.0000,93.0716 220.0000,93.0215" fill="none" stroke="#889196" stroke-width=".12" stroke-dasharray="1.5 1"/><polyline points="220.0000,93.0215 220.0000,93.0716 220.0000,93.2195 220.0000,93.4578 220.0000,93.7745 220.0000,94.1537 220.0000,94.5764 220.0000,95.0215 220.0000,95.4665 220.0000,95.8892 220.0000,96.2685 220.0000,96.5851 220.0000,96.8234 220.0000,96.9713 220.0000,97.0215" fill="none" stroke="#889196" stroke-width=".12" stroke-dasharray="1.5 1"/><polyline points="217.0000,81.0000 220.0000,81.0000" fill="none" stroke="#889196" stroke-width=".12" stroke-dasharray="1.5 1"/><polyline points="217.0000,64.9785 220.0000,64.9785" fill="none" stroke="#889196" stroke-width=".12" stroke-dasharray="1.5 1"/><polyline points="217.0000,93.5500 220.0000,93.5500" fill="none" stroke="#889196" stroke-width=".12" stroke-dasharray="1.5 1"/><polyline points="217.0000,97.0215 220.0000,97.0215" fill="none" stroke="#889196" stroke-width=".12" stroke-dasharray="1.5 1"/><polyline points="220.0000,77.0000 217.0000,77.0000" fill="none" stroke="#889196" stroke-width=".12" stroke-dasharray="1.5 1"/><polyline points="220.0000,60.9785 217.0000,60.9785" fill="none" stroke="#889196" stroke-width=".12" stroke-dasharray="1.5 1"/><polyline points="220.0000,64.4500 217.0000,64.4500" fill="none" stroke="#889196" stroke-width=".12" stroke-dasharray="1.5 1"/><polyline points="220.0000,93.0215 217.0000,93.0215" fill="none" stroke="#889196" stroke-width=".12" stroke-dasharray="1.5 1"/><polyline points="217.0000,103.1500 220.0000,103.1500" fill="none" stroke="#171c20" stroke-width=".24"/><polyline points="217.0000,54.8500 217.0000,55.4555 217.0000,57.2416 217.0000,60.1188 217.0000,63.9427 217.0000,68.5217 217.0000,73.6261 217.0000,79.0000 217.0000,84.3739 217.0000,89.4783 217.0000,94.0573 217.0000,97.8812 217.0000,100.7584 217.0000,102.5445 217.0000,103.1500" fill="none" stroke="#171c20" stroke-width=".24"/><polyline points="220.0000,54.8500 220.0000,55.4555 220.0000,57.2416 220.0000,60.1188 220.0000,63.9427 220.0000,68.5217 220.0000,73.6261 220.0000,79.0000 220.0000,84.3739 220.0000,89.4783 220.0000,94.0573 220.0000,97.8812 220.0000,100.7584 220.0000,102.5445 220.0000,103.1500" fill="none" stroke="#171c20" stroke-width=".24"/><polyline points="220.0000,54.8500 217.0000,54.8500" fill="none" stroke="#171c20" stroke-width=".24"/><path d="M217.0000,103.1500 L217.0000,108.1500" fill="none" stroke="#171c20" stroke-width="0.15"/><path d="M220.0000,103.1500 L220.0000,108.1500" fill="none" stroke="#171c20" stroke-width="0.15"/><path d="M217.0000,110.1500 L220.0000,110.1500" fill="none" stroke="#171c20" stroke-width="0.18"/><path d="M217.0000,110.1500 L219.0000,109.1500" fill="none" stroke="#171c20" stroke-width="0.18"/><path d="M217.0000,110.1500 L219.0000,111.1500" fill="none" stroke="#171c20" stroke-width="0.18"/><path d="M220.0000,110.1500 L218.0000,109.1500" fill="none" stroke="#171c20" stroke-width="0.18"/><path d="M220.0000,110.1500 L218.0000,111.1500" fill="none" stroke="#171c20" stroke-width="0.18"/><text x="218.5" y="108.35000000000001" font-family="DejaVu Sans" font-size="2.8" text-anchor="middle" fill="#171c20">6*</text><path d="M217.0000,54.8500 L213.0000,54.8500" fill="none" stroke="#171c20" stroke-width="0.15"/><path d="M217.0000,103.1500 L213.0000,103.1500" fill="none" stroke="#171c20" stroke-width="0.15"/><path d="M211.0000,54.8500 L211.0000,103.1500" fill="none" stroke="#171c20" stroke-width="0.18"/><path d="M211.0000,54.8500 L210.0000,56.8500" fill="none" stroke="#171c20" stroke-width="0.18"/><path d="M211.0000,54.8500 L212.0000,56.8500" fill="none" stroke="#171c20" stroke-width="0.18"/><path d="M211.0000,103.1500 L210.0000,101.1500" fill="none" stroke="#171c20" stroke-width="0.18"/><path d="M211.0000,103.1500 L212.0000,101.1500" fill="none" stroke="#171c20" stroke-width="0.18"/><text x="209.0" y="79.0" font-family="DejaVu Sans" font-size="2.8" text-anchor="end" fill="#171c20">96.6*</text><text x="23" y="134" font-family="DejaVu Sans" font-size="2.8" text-anchor="start" fill="#171c20" font-weight="bold">Вид по −X · Y/Z · М 1:2</text><polyline points="83.5000,193.1500 85.0473,193.1004 86.5882,192.9517 88.1165,192.7047 89.6258,192.3602 91.1099,191.9197 92.5627,191.3850 93.9783,190.7584 95.3508,190.0423 96.6747,189.2398 97.9444,188.3541 99.1547,187.3889 100.3007,186.3481 101.3777,185.2361 102.3812,184.0573 103.3072,182.8166 104.1517,181.5192 104.9114,180.1703 105.5831,178.7755 106.1640,177.3406 106.6518,175.8713 107.0445,174.3739 107.3404,172.8543 107.5384,171.3190 107.6376,169.7740 107.6376,168.2260 107.5384,166.6810 107.3404,165.1457 107.0445,163.6261 106.6518,162.1287 106.1640,160.6594 105.5831,159.2245 104.9114,157.8297 104.1517,156.4808 103.3072,155.1834 102.3812,153.9427 101.3777,152.7639 100.3007,151.6519 99.1547,150.6111 97.9444,149.6459 96.6747,148.7602 95.3508,147.9577 93.9783,147.2416 92.5627,146.6150 91.1099,146.0803 89.6258,145.6398 88.1165,145.2953 86.5882,145.0483 85.0473,144.8996 83.5000,144.8500 81.9527,144.8996 80.4118,145.0483 78.8835,145.2953 77.3742,145.6398 75.8901,146.0803 74.4373,146.6150 73.0217,147.2416 71.6492,147.9577 70.3253,148.7602 69.0556,149.6459 67.8453,150.6111 66.6993,151.6519 65.6223,152.7639 64.6188,153.9427 63.6928,155.1834 62.8483,156.4808 62.0886,157.8297 61.4169,159.2245 60.8360,160.6594 60.3482,162.1287 59.9555,163.6261 59.6596,165.1457 59.4616,166.6810 59.3624,168.2260 59.3624,169.7740 59.4616,171.3190 59.6596,172.8543 59.9555,174.3739 60.3482,175.8713 60.8360,177.3406 61.4169,178.7755 62.0886,180.1703 62.8483,181.5192 63.6928,182.8166 64.6188,184.0573 65.6223,185.2361 66.6993,186.3481 67.8453,187.3889 69.0556,188.3541 70.3253,189.2398 71.6492,190.0423 73.0217,190.7584 74.4373,191.3850 75.8901,191.9197 77.3742,192.3602 78.8835,192.7047 80.4118,192.9517 81.9527,193.1004 83.5000,193.1500" fill="none" stroke="#889196" stroke-width=".12" stroke-dasharray="1.5 1"/><polyline points="65.0000,171.0000 64.5701,170.9532 64.1602,170.8151 63.7896,170.5922 63.4757,170.2948 63.2330,169.9368 63.0729,169.5351 63.0029,169.1083 63.0263,168.6764 63.1420,168.2597 63.3446,167.8776 63.6246,167.5480 63.9689,167.2863 64.3614,167.1047 64.7838,167.0117 65.2162,167.0117 65.6386,167.1047 66.0311,167.2863 66.3754,167.5480 66.6554,167.8776 66.8580,168.2597 66.9737,168.6764 66.9971,169.1083 66.9271,169.5351 66.7670,169.9368 66.5243,170.2948 66.2103,170.5922 65.8398,170.8151 65.4299,170.9532 65.0000,171.0000" fill="none" stroke="#889196" stroke-width=".12" stroke-dasharray="1.5 1"/><polyline points="92.7500,154.9785 92.3201,154.9318 91.9102,154.7937 91.5396,154.5707 91.2257,154.2733 90.9830,153.9153 90.8229,153.5136 90.7529,153.0868 90.7763,152.6550 90.8920,152.2383 91.0946,151.8562 91.3746,151.5265 91.7189,151.2648 92.1114,151.0832 92.5338,150.9903 92.9662,150.9903 93.3886,151.0832 93.7811,151.2648 94.1254,151.5265 94.4054,151.8562 94.6080,152.2383 94.7237,152.6550 94.7471,153.0868 94.6771,153.5136 94.5170,153.9153 94.2743,154.2733 93.9603,154.5707 93.5898,154.7937 93.1799,154.9318 92.7500,154.9785" fill="none" stroke="#889196" stroke-width=".12" stroke-dasharray="1.5 1"/><polyline points="83.5000,183.5500 84.7015,183.5003 85.8948,183.3516 87.0718,183.1048 88.2244,182.7616 89.3447,182.3245 90.4250,181.7963 91.4581,181.1808 92.4368,180.4820 93.3544,179.7048 94.2048,178.8544 94.9820,177.9368 95.6808,176.9581 96.2963,175.9250 96.8245,174.8447 97.2616,173.7244 97.6048,172.5718 97.8516,171.3948 98.0003,170.2015 98.0500,169.0000 98.0003,167.7985 97.8516,166.6051 97.6048,165.4282 97.2616,164.2756 96.8245,163.1553 96.2963,162.0750 95.6808,161.0419 94.9820,160.0632 94.2048,159.1456 93.3544,158.2952 92.4368,157.5180 91.4581,156.8192 90.4250,156.2037 89.3447,155.6755 88.2244,155.2384 87.0718,154.8952 85.8948,154.6484 84.7015,154.4997 83.5000,154.4500 82.2985,154.4997 81.1051,154.6484 79.9282,154.8952 78.7756,155.2384 77.6553,155.6755 76.5750,156.2037 75.5419,156.8192 74.5632,157.5180 73.6456,158.2952 72.7952,159.1456 72.0180,160.0632 71.3192,161.0419 70.7037,162.0750 70.1755,163.1553 69.7384,164.2756 69.3952,165.4282 69.1484,166.6051 68.9997,167.7985 68.9500,169.0000 68.9997,170.2015 69.1484,171.3948 69.3952,172.5718 69.7384,173.7244 70.1755,174.8447 70.7037,175.9250 71.3192,176.9581 72.0180,177.9368 72.7952,178.8544 73.6456,179.7048 74.5632,180.4820 75.5419,181.1808 76.5750,181.7963 77.6553,182.3245 78.7756,182.7616 79.9282,183.1048 81.1051,183.3516 82.2985,183.5003 83.5000,183.5500" fill="none" stroke="#889196" stroke-width=".12" stroke-dasharray="1.5 1"/><polyline points="92.7500,187.0215 92.3201,186.9747 91.9102,186.8366 91.5396,186.6137 91.2257,186.3162 90.9830,185.9583 90.8229,185.5565 90.7529,185.1298 90.7763,184.6979 90.8920,184.2812 91.0946,183.8991 91.3746,183.5695 91.7189,183.3078 92.1114,183.1262 92.5338,183.0332 92.9662,183.0332 93.3886,183.1262 93.7811,183.3078 94.1254,183.5695 94.4054,183.8991 94.6080,184.2812 94.7237,184.6979 94.7471,185.1298 94.6771,185.5565 94.5170,185.9583 94.2743,186.3162 93.9603,186.6137 93.5898,186.8366 93.1799,186.9747 92.7500,187.0215" fill="none" stroke="#889196" stroke-width=".12" stroke-dasharray="1.5 1"/><polyline points="83.5000,193.1500 85.0473,193.1004 86.5882,192.9517 88.1165,192.7047 89.6258,192.3602 91.1099,191.9197 92.5627,191.3850 93.9783,190.7584 95.3508,190.0423 96.6747,189.2398 97.9444,188.3541 99.1547,187.3889 100.3007,186.3481 101.3777,185.2361 102.3812,184.0573 103.3072,182.8166 104.1517,181.5192 104.9114,180.1703 105.5831,178.7755 106.1640,177.3406 106.6518,175.8713 107.0445,174.3739 107.3404,172.8543 107.5384,171.3190 107.6376,169.7740 107.6376,168.2260 107.5384,166.6810 107.3404,165.1457 107.0445,163.6261 106.6518,162.1287 106.1640,160.6594 105.5831,159.2245 104.9114,157.8297 104.1517,156.4808 103.3072,155.1834 102.3812,153.9427 101.3777,152.7639 100.3007,151.6519 99.1547,150.6111 97.9444,149.6459 96.6747,148.7602 95.3508,147.9577 93.9783,147.2416 92.5627,146.6150 91.1099,146.0803 89.6258,145.6398 88.1165,145.2953 86.5882,145.0483 85.0473,144.8996 83.5000,144.8500 81.9527,144.8996 80.4118,145.0483 78.8835,145.2953 77.3742,145.6398 75.8901,146.0803 74.4373,146.6150 73.0217,147.2416 71.6492,147.9577 70.3253,148.7602 69.0556,149.6459 67.8453,150.6111 66.6993,151.6519 65.6223,152.7639 64.6188,153.9427 63.6928,155.1834 62.8483,156.4808 62.0886,157.8297 61.4169,159.2245 60.8360,160.6594 60.3482,162.1287 59.9555,163.6261 59.6596,165.1457 59.4616,166.6810 59.3624,168.2260 59.3624,169.7740 59.4616,171.3190 59.6596,172.8543 59.9555,174.3739 60.3482,175.8713 60.8360,177.3406 61.4169,178.7755 62.0886,180.1703 62.8483,181.5192 63.6928,182.8166 64.6188,184.0573 65.6223,185.2361 66.6993,186.3481 67.8453,187.3889 69.0556,188.3541 70.3253,189.2398 71.6492,190.0423 73.0217,190.7584 74.4373,191.3850 75.8901,191.9197 77.3742,192.3602 78.8835,192.7047 80.4118,192.9517 81.9527,193.1004 83.5000,193.1500" fill="none" stroke="#171c20" stroke-width=".24"/><polyline points="65.0000,171.0000 64.5701,170.9532 64.1602,170.8151 63.7896,170.5922 63.4757,170.2948 63.2330,169.9368 63.0729,169.5351 63.0029,169.1083 63.0263,168.6764 63.1420,168.2597 63.3446,167.8776 63.6246,167.5480 63.9689,167.2863 64.3614,167.1047 64.7838,167.0117 65.2162,167.0117 65.6386,167.1047 66.0311,167.2863 66.3754,167.5480 66.6554,167.8776 66.8580,168.2597 66.9737,168.6764 66.9971,169.1083 66.9271,169.5351 66.7670,169.9368 66.5243,170.2948 66.2103,170.5922 65.8398,170.8151 65.4299,170.9532 65.0000,171.0000" fill="none" stroke="#171c20" stroke-width=".24"/><polyline points="92.7500,154.9785 92.3201,154.9318 91.9102,154.7937 91.5396,154.5707 91.2257,154.2733 90.9830,153.9153 90.8229,153.5136 90.7529,153.0868 90.7763,152.6550 90.8920,152.2383 91.0946,151.8562 91.3746,151.5265 91.7189,151.2648 92.1114,151.0832 92.5338,150.9903 92.9662,150.9903 93.3886,151.0832 93.7811,151.2648 94.1254,151.5265 94.4054,151.8562 94.6080,152.2383 94.7237,152.6550 94.7471,153.0868 94.6771,153.5136 94.5170,153.9153 94.2743,154.2733 93.9603,154.5707 93.5898,154.7937 93.1799,154.9318 92.7500,154.9785" fill="none" stroke="#171c20" stroke-width=".24"/><polyline points="83.5000,183.5500 84.7015,183.5003 85.8948,183.3516 87.0718,183.1048 88.2244,182.7616 89.3447,182.3245 90.4250,181.7963 91.4581,181.1808 92.4368,180.4820 93.3544,179.7048 94.2048,178.8544 94.9820,177.9368 95.6808,176.9581 96.2963,175.9250 96.8245,174.8447 97.2616,173.7244 97.6048,172.5718 97.8516,171.3948 98.0003,170.2015 98.0500,169.0000 98.0003,167.7985 97.8516,166.6051 97.6048,165.4282 97.2616,164.2756 96.8245,163.1553 96.2963,162.0750 95.6808,161.0419 94.9820,160.0632 94.2048,159.1456 93.3544,158.2952 92.4368,157.5180 91.4581,156.8192 90.4250,156.2037 89.3447,155.6755 88.2244,155.2384 87.0718,154.8952 85.8948,154.6484 84.7015,154.4997 83.5000,154.4500 82.2985,154.4997 81.1051,154.6484 79.9282,154.8952 78.7756,155.2384 77.6553,155.6755 76.5750,156.2037 75.5419,156.8192 74.5632,157.5180 73.6456,158.2952 72.7952,159.1456 72.0180,160.0632 71.3192,161.0419 70.7037,162.0750 70.1755,163.1553 69.7384,164.2756 69.3952,165.4282 69.1484,166.6051 68.9997,167.7985 68.9500,169.0000 68.9997,170.2015 69.1484,171.3948 69.3952,172.5718 69.7384,173.7244 70.1755,174.8447 70.7037,175.9250 71.3192,176.9581 72.0180,177.9368 72.7952,178.8544 73.6456,179.7048 74.5632,180.4820 75.5419,181.1808 76.5750,181.7963 77.6553,182.3245 78.7756,182.7616 79.9282,183.1048 81.1051,183.3516 82.2985,183.5003 83.5000,183.5500" fill="none" stroke="#171c20" stroke-width=".24"/><polyline points="92.7500,187.0215 92.3201,186.9747 91.9102,186.8366 91.5396,186.6137 91.2257,186.3162 90.9830,185.9583 90.8229,185.5565 90.7529,185.1298 90.7763,184.6979 90.8920,184.2812 91.0946,183.8991 91.3746,183.5695 91.7189,183.3078 92.1114,183.1262 92.5338,183.0332 92.9662,183.0332 93.3886,183.1262 93.7811,183.3078 94.1254,183.5695 94.4054,183.8991 94.6080,184.2812 94.7237,184.6979 94.7471,185.1298 94.6771,185.5565 94.5170,185.9583 94.2743,186.3162 93.9603,186.6137 93.5898,186.8366 93.1799,186.9747 92.7500,187.0215" fill="none" stroke="#171c20" stroke-width=".24"/><path d="M59.3624,193.1500 L59.3624,198.1500" fill="none" stroke="#171c20" stroke-width="0.15"/><path d="M107.6376,193.1500 L107.6376,198.1500" fill="none" stroke="#171c20" stroke-width="0.15"/><path d="M59.3624,200.1500 L107.6376,200.1500" fill="none" stroke="#171c20" stroke-width="0.18"/><path d="M59.3624,200.1500 L61.3624,199.1500" fill="none" stroke="#171c20" stroke-width="0.18"/><path d="M59.3624,200.1500 L61.3624,201.1500" fill="none" stroke="#171c20" stroke-width="0.18"/><path d="M107.6376,200.1500 L105.6376,199.1500" fill="none" stroke="#171c20" stroke-width="0.18"/><path d="M107.6376,200.1500 L105.6376,201.1500" fill="none" stroke="#171c20" stroke-width="0.18"/><text x="83.5" y="198.34999999999997" font-family="DejaVu Sans" font-size="2.8" text-anchor="middle" fill="#171c20">96.55*</text><path d="M59.3624,144.8500 L55.3624,144.8500" fill="none" stroke="#171c20" stroke-width="0.15"/><path d="M59.3624,193.1500 L55.3624,193.1500" fill="none" stroke="#171c20" stroke-width="0.15"/><path d="M53.3624,144.8500 L53.3624,193.1500" fill="none" stroke="#171c20" stroke-width="0.18"/><path d="M53.3624,144.8500 L52.3624,146.8500" fill="none" stroke="#171c20" stroke-width="0.18"/><path d="M53.3624,144.8500 L54.3624,146.8500" fill="none" stroke="#171c20" stroke-width="0.18"/><path d="M53.3624,193.1500 L52.3624,191.1500" fill="none" stroke="#171c20" stroke-width="0.18"/><path d="M53.3624,193.1500 L54.3624,191.1500" fill="none" stroke="#171c20" stroke-width="0.18"/><text x="51.36241" y="169.0" font-family="DejaVu Sans" font-size="2.8" text-anchor="end" fill="#171c20">96.6*</text><text x="158" y="134" font-family="DejaVu Sans" font-size="2.8" text-anchor="start" fill="#171c20" font-weight="bold">Аксонометрия · М 1:2</text><polyline points="217.4393,149.8924 216.1945,149.2262 214.9793,148.6778 213.7999,148.2442 212.6611,147.9214 211.5666,147.7045 210.5189,147.5887 209.5197,147.5688 208.5694,147.6400 207.6682,147.7980 206.8155,148.0393 206.0107,148.3611 205.6835,148.5215 205.3643,148.6963" fill="none" stroke="#889196" stroke-width=".12" stroke-dasharray="1.5 1"/><polyline points="229.5143,190.5253 230.2320,190.0585 230.9027,189.5137 231.5259,188.8900 232.1001,188.1861 232.6232,187.4003 233.0921,186.5307 233.5030,185.5755 233.8515,184.5335 234.1324,183.4042 234.3405,182.1880 234.4702,180.8864 234.5159,179.5024 234.4726,178.0404 234.3355,176.5066 234.1008,174.9085 233.7656,173.2557 233.3282,171.5590 232.7885,169.8306 232.1476,168.0840 231.4082,166.3336 230.5748,164.5944 229.6532,162.8816 228.6508,161.2103 227.5762,159.5949 226.4391,158.0491 225.2499,156.5853 224.0199,155.2146 222.7602,153.9461 221.4821,152.7871 220.1966,151.7431 218.9140,150.8175 217.4393,149.8924" fill="none" stroke="#889196" stroke-width=".12" stroke-dasharray="1.5 1"/><polyline points="230.5208,175.5304 230.8755,175.7874 231.2250,176.1539 231.5339,176.6090 231.7675,177.1123 231.9025,177.6126 231.9332,178.0618 231.8714,178.4274 231.7379,178.6977 231.6381,178.8096 231.5208,178.8955" fill="none" stroke="#889196" stroke-width=".12" stroke-dasharray="1.5 1"/><polyline points="231.5208,178.8955 231.2866,178.9784 231.0116,178.9783 230.6966,178.8852 230.3505,178.6862 229.9942,178.3750 229.6598,177.9617 229.3835,177.4773 229.1957,176.9688 229.1117,176.4880 229.1280,176.0765 229.2272,175.7567 229.3881,175.5318 229.5208,175.4314" fill="none" stroke="#889196" stroke-width=".12" stroke-dasharray="1.5 1"/><polyline points="229.5208,175.4314 229.7550,175.3484 230.0301,175.3486 230.3451,175.4416 230.5208,175.5304" fill="none" stroke="#889196" stroke-width=".12" stroke-dasharray="1.5 1"/><polyline points="210.8986,177.2830 211.2533,177.5400 211.6028,177.9065 211.9117,178.3615 212.1453,178.8649 212.2802,179.3652 212.3110,179.8143 212.2492,180.1800 212.1157,180.4503 212.0159,180.5621 211.8986,180.6481" fill="none" stroke="#889196" stroke-width=".12" stroke-dasharray="1.5 1"/><polyline points="211.8986,180.6481 211.6644,180.7310 211.3893,180.7309 211.0744,180.6378 210.7283,180.4388 210.3720,180.1276 210.0376,179.7143 209.7612,179.2299 209.5735,178.7214 209.4895,178.2406 209.5057,177.8291 209.6050,177.5093 209.7659,177.2843 209.8986,177.1840" fill="none" stroke="#889196" stroke-width=".12" stroke-dasharray="1.5 1"/><polyline points="209.8986,177.1840 210.1328,177.1010 210.4079,177.1012 210.7228,177.1942 210.8986,177.2830" fill="none" stroke="#889196" stroke-width=".12" stroke-dasharray="1.5 1"/><polyline points="211.3027,156.5324 210.6634,156.7591 210.1643,157.0102" fill="none" stroke="#889196" stroke-width=".12" stroke-dasharray="1.5 1"/><polyline points="210.1643,157.0102 209.6126,157.3812 209.1083,157.8300 208.6524,158.3580 208.2475,158.9671 207.8972,159.6597 207.6065,160.4378 207.3816,161.3025 207.2292,162.2536 207.1563,163.2888 207.1700,164.4037 207.2762,165.5912 207.4801,166.8416 207.7849,168.1425 208.1918,169.4788 208.6998,170.8337 209.3051,172.1887 210.0012,173.5242 210.7795,174.8210 211.6289,176.0602 212.5366,177.2246 213.4887,178.2992 214.4707,179.2716 215.4681,180.1326 216.4669,180.8763 217.4546,181.4996 218.4199,182.0029 219.3534,182.3886 220.2481,182.6612 221.0985,182.8267 221.9013,182.8916 222.6549,182.8624 223.3590,182.7451 224.0140,182.5446 224.7143,182.2115" fill="none" stroke="#889196" stroke-width=".12" stroke-dasharray="1.5 1"/><polyline points="224.7143,182.2115 225.2661,181.8405 225.6973,181.4645" fill="none" stroke="#889196" stroke-width=".12" stroke-dasharray="1.5 1"/><polyline points="210.8986,151.1201 211.2533,151.3771 211.6028,151.7435 211.9117,152.1986 212.1453,152.7020 212.2802,153.2023 212.3110,153.6514 212.2492,154.0170 212.1157,154.2874 212.0159,154.3992 211.8986,154.4851" fill="none" stroke="#889196" stroke-width=".12" stroke-dasharray="1.5 1"/><polyline points="211.8986,154.4851 211.6644,154.5681 211.3893,154.5679 211.0744,154.4749 210.7283,154.2758 210.3720,153.9646 210.0376,153.5514 209.7612,153.0669 209.5735,152.5585 209.4895,152.0777 209.5057,151.6662 209.6050,151.3463 209.7659,151.1214 209.8986,151.0210" fill="none" stroke="#889196" stroke-width=".12" stroke-dasharray="1.5 1"/><polyline points="209.8986,151.0210 210.1328,150.9381 210.4079,150.9382 210.7228,151.0312 210.8986,151.1201" fill="none" stroke="#889196" stroke-width=".12" stroke-dasharray="1.5 1"/><polyline points="231.6421,174.2066 229.5208,175.4314" fill="none" stroke="#889196" stroke-width=".12" stroke-dasharray="1.5 1"/><polyline points="233.6421,177.6707 231.5208,178.8955" fill="none" stroke="#889196" stroke-width=".12" stroke-dasharray="1.5 1"/><polyline points="212.0199,175.9592 209.8986,177.1840" fill="none" stroke="#889196" stroke-width=".12" stroke-dasharray="1.5 1"/><polyline points="214.0199,179.4233 211.8986,180.6481" fill="none" stroke="#889196" stroke-width=".12" stroke-dasharray="1.5 1"/><polyline points="212.2857,155.7854 210.1643,157.0102" fill="none" stroke="#889196" stroke-width=".12" stroke-dasharray="1.5 1"/><polyline points="226.8357,180.9868 224.7143,182.2115" fill="none" stroke="#889196" stroke-width=".12" stroke-dasharray="1.5 1"/><polyline points="212.0199,149.7963 209.8986,151.0210" fill="none" stroke="#889196" stroke-width=".12" stroke-dasharray="1.5 1"/><polyline points="214.0199,153.2604 211.8986,154.4851" fill="none" stroke="#889196" stroke-width=".12" stroke-dasharray="1.5 1"/><polyline points="205.3643,148.6963 204.6467,149.1631 203.9759,149.7080 203.3528,150.3317 202.7786,151.0355 202.2555,151.8214 201.7866,152.6910 201.3757,153.6462 201.0272,154.6881 200.7462,155.8174 200.5382,157.0337 200.4085,158.3353 200.3627,159.7193 200.4061,161.1813 200.5432,162.7151 200.7779,164.3131 201.1131,165.9659 201.5504,167.6627 202.0902,169.3911 202.7311,171.1377 203.4705,172.8880 204.3039,174.6272 205.2255,176.3400 206.2279,178.0114 207.3025,179.6268 208.4396,181.1726 209.6287,182.6363 210.8588,184.0071 212.1185,185.2756 213.3966,186.4346 214.6821,187.4786 215.9647,188.4042 217.2348,189.2097 218.4838,189.8953 219.7043,190.4627 220.8898,190.9146 222.0355,191.2552 223.1374,191.4889 224.1928,191.6208 225.2000,191.6559 226.1582,191.5992 227.0674,191.4550 227.9279,191.2271 228.7404,190.9182 229.5143,190.5253" fill="none" stroke="#171c20" stroke-width=".24"/><polyline points="219.5607,148.6677 218.3158,148.0014 217.1006,147.4531 215.9212,147.0195 214.7824,146.6966 213.6879,146.4798 212.6403,146.3640 211.6410,146.3441 210.6907,146.4153 209.7895,146.5733 208.9368,146.8146 208.1321,147.1363 207.8049,147.2968 207.4857,147.4716" fill="none" stroke="#171c20" stroke-width=".24"/><polyline points="207.4857,147.4716 206.7680,147.9384 206.0973,148.4832 205.4741,149.1069 204.8999,149.8108 204.3768,150.5966 203.9079,151.4663 203.4970,152.4214 203.1485,153.4634 202.8676,154.5927 202.6595,155.8089 202.5298,157.1105 202.4841,158.4945 202.5274,159.9565 202.6645,161.4904 202.8992,163.0884 203.2344,164.7412 203.6718,166.4380 204.2115,168.1664 204.8524,169.9129 205.5918,171.6633 206.4252,173.4025 207.3468,175.1153 208.3492,176.7866 209.4238,178.4020 210.5609,179.9478 211.7500,181.4116 212.9801,182.7823 214.2398,184.0508 215.5179,185.2098 216.8034,186.2538 218.0860,187.1794 219.3561,187.9850 220.6051,188.6706 221.8256,189.2379 223.0112,189.6899 224.1568,190.0304 225.2587,190.2641 226.3141,190.3960 227.3213,190.4312 228.2796,190.3745 229.1887,190.2303 230.0492,190.0023 230.8617,189.6935 231.6357,189.3006" fill="none" stroke="#171c20" stroke-width=".24"/><polyline points="231.6357,189.3006 232.3533,188.8338 233.0241,188.2889 233.6472,187.6653 234.2215,186.9614 234.7445,186.1756 235.2134,185.3059 235.6243,184.3507 235.9728,183.3088 236.2538,182.1795 236.4618,180.9632 236.5915,179.6616 236.6373,178.2776 236.5939,176.8157 236.4568,175.2818 236.2221,173.6838 235.8869,172.0310 235.4496,170.3342 234.9098,168.6058 234.2689,166.8592 233.5295,165.1089 232.6961,163.3697 231.7745,161.6569 230.7721,159.9855 229.6975,158.3701 228.5604,156.8243 227.3713,155.3606 226.1412,153.9899 224.8815,152.7213 223.6034,151.5623 222.3179,150.5183 221.0353,149.5928 219.5607,148.6677" fill="none" stroke="#171c20" stroke-width=".24"/><polyline points="217.4393,157.7308 216.4736,157.2257 215.5395,156.8382 214.6442,156.5639 213.7931,156.3967 212.9895,156.3303 212.2351,156.3581 211.7605,156.4258 211.3027,156.5324" fill="none" stroke="#171c20" stroke-width=".24"/><polyline points="225.6973,181.4645 226.1606,180.9486 226.5734,180.3519 226.9323,179.6720 227.2323,178.9070 227.4676,178.0554 227.6314,177.1173 227.7167,176.0946 227.7166,174.9913 227.6247,173.8142 227.4358,172.5726 227.1464,171.2784 226.7549,169.9464 226.2620,168.5932 225.6711,167.2370 224.9882,165.8973 224.2217,164.5934 223.3823,163.3444 222.4825,162.1676 221.5362,161.0786 220.5577,160.0901 219.5618,159.2117 218.5623,158.4501 217.4393,157.7308" fill="none" stroke="#171c20" stroke-width=".24"/><polyline points="232.6421,174.3057 232.9969,174.5627 233.3463,174.9291 233.6552,175.3842 233.8889,175.8876 234.0238,176.3879 234.0545,176.8370 233.9928,177.2027 233.8592,177.4730 233.7595,177.5848 233.6421,177.6707" fill="none" stroke="#171c20" stroke-width=".24"/><polyline points="233.6421,177.6707 233.4079,177.7537 233.1329,177.7535 232.8179,177.6605 232.4718,177.4614 232.1156,177.1502 231.7811,176.7370 231.5048,176.2525 231.3170,175.7441 231.2330,175.2633 231.2493,174.8518 231.3485,174.5320 231.5094,174.3070 231.6421,174.2066" fill="none" stroke="#171c20" stroke-width=".24"/><polyline points="231.6421,174.2066 231.8764,174.1237 232.1514,174.1238 232.4664,174.2169 232.6421,174.3057" fill="none" stroke="#171c20" stroke-width=".24"/><polyline points="213.0199,176.0583 213.3747,176.3153 213.7241,176.6817 214.0330,177.1368 214.2666,177.6402 214.4016,178.1405 214.4323,178.5896 214.3705,178.9553 214.2370,179.2256 214.1373,179.3374 214.0199,179.4233" fill="none" stroke="#171c20" stroke-width=".24"/><polyline points="214.0199,179.4233 213.7857,179.5063 213.5107,179.5061 213.1957,179.4131 212.8496,179.2140 212.4934,178.9028 212.1589,178.4896 211.8826,178.0051 211.6948,177.4967 211.6108,177.0159 211.6271,176.6044 211.7263,176.2845 211.8872,176.0596 212.0199,175.9592" fill="none" stroke="#171c20" stroke-width=".24"/><polyline points="212.0199,175.9592 212.2542,175.8763 212.5292,175.8764 212.8442,175.9695 213.0199,176.0583" fill="none" stroke="#171c20" stroke-width=".24"/><polyline points="219.5607,156.5061 218.5950,156.0010 217.6608,155.6135 216.7656,155.3391 215.9144,155.1720 215.1108,155.1056 214.3564,155.1333 213.6516,155.2493 212.9959,155.4486 212.6332,155.6031 212.2857,155.7854" fill="none" stroke="#171c20" stroke-width=".24"/><polyline points="212.2857,155.7854 211.7339,156.1564 211.2296,156.6053 210.7737,157.1333 210.3688,157.7424 210.0185,158.4350 209.7278,159.2131 209.5029,160.0778 209.3505,161.0288 209.2777,162.0641 209.2913,163.1790 209.3975,164.3665 209.6014,165.6169 209.9062,166.9177 210.3132,168.2541 210.8211,169.6090 211.4264,170.9639 212.1226,172.2995 212.9008,173.5962 213.7502,174.8354 214.6579,175.9999 215.6100,177.0744 216.5920,178.0469 217.5894,178.9079 218.5883,179.6515 219.5759,180.2749 220.5412,180.7781 221.4748,181.1638 222.3694,181.4365 223.2198,181.6020 224.0226,181.6668 224.7763,181.6377 225.4803,181.5204 226.1353,181.3198 226.8357,180.9868" fill="none" stroke="#171c20" stroke-width=".24"/><polyline points="226.8357,180.9868 227.3874,180.6157 227.8917,180.1669 228.3476,179.6389 228.7525,179.0298 229.1028,178.3372 229.3935,177.5591 229.6184,176.6944 229.7708,175.7433 229.8437,174.7081 229.8300,173.5932 229.7238,172.4057 229.5199,171.1553 229.2151,169.8544 228.8082,168.5181 228.3002,167.1632 227.6949,165.8083 226.9988,164.4727 226.2205,163.1759 225.3712,161.9367 224.4634,160.7723 223.5113,159.6977 222.5293,158.7253 221.5319,157.8643 220.5331,157.1207 219.5607,156.5061" fill="none" stroke="#171c20" stroke-width=".24"/><polyline points="213.0199,149.8953 213.3747,150.1523 213.7241,150.5188 214.0330,150.9738 214.2666,151.4772 214.4016,151.9775 214.4323,152.4266 214.3705,152.7923 214.2370,153.0626 214.1373,153.1744 214.0199,153.2604" fill="none" stroke="#171c20" stroke-width=".24"/><polyline points="214.0199,153.2604 213.7857,153.3433 213.5107,153.3432 213.1957,153.2501 212.8496,153.0511 212.4934,152.7399 212.1589,152.3266 211.8826,151.8422 211.6948,151.3337 211.6108,150.8529 211.6271,150.4414 211.7263,150.1216 211.8872,149.8966 212.0199,149.7963" fill="none" stroke="#171c20" stroke-width=".24"/><polyline points="212.0199,149.7963 212.2542,149.7133 212.5292,149.7135 212.8442,149.8065 213.0199,149.8953" fill="none" stroke="#171c20" stroke-width=".24"/><polyline points="207.4857,147.4716 205.3643,148.6963" fill="none" stroke="#171c20" stroke-width=".24"/><polyline points="231.6357,189.3006 229.5143,190.5253" fill="none" stroke="#171c20" stroke-width=".24"/><path d="M288.0000,35.0000 L288.0000,235.0000" fill="none" stroke="#171c20" stroke-width="0.18"/><text x="295" y="42.0" font-family="DejaVu Sans" font-size="3.2" text-anchor="start" fill="#171c20">Проектная деталь · материал и допуски уточнить</text><text x="295" y="50.64" font-family="DejaVu Sans" font-size="2.8" text-anchor="start" fill="#171c20">1. Размеры номинальные из CAD D01. Общие допуски, шероховатость и</text><text x="295" y="54.7" font-family="DejaVu Sans" font-size="2.8" text-anchor="start" fill="#171c20">посадки не назначены.</text><text x="295" y="61.76" font-family="DejaVu Sans" font-size="2.8" text-anchor="start" fill="#171c20">2. Масса расчётная; плотность либо назначенная масса взяты из</text><text x="295" y="65.82" font-family="DejaVu Sans" font-size="2.8" text-anchor="start" fill="#171c20">ведомости.</text><text x="295" y="72.88" font-family="DejaVu Sans" font-size="2.8" text-anchor="start" fill="#171c20">3. Контуры получены проекцией BRep. Перед изготовлением: выпуск</text><text x="295" y="76.94" font-family="DejaVu Sans" font-size="2.8" text-anchor="start" fill="#171c20">допусков, технологии и проверка креплений.</text><text x="295" y="84.0" font-family="DejaVu Sans" font-size="2.8" text-anchor="start" fill="#171c20">Цилиндрические поверхности: 5. Диаметры и оси — на следующих</text><text x="295" y="88.06" font-family="DejaVu Sans" font-size="2.8" text-anchor="start" fill="#171c20">листах; обозначение C01…</text><text x="15" y="224" font-family="DejaVu Sans" font-size="3.2" text-anchor="start" fill="#171c20">Локальный габарит X × Y × Z: 6 × 96.6 × 96.6 мм</text><text x="15" y="233.0" font-family="DejaVu Sans" font-size="2.7" text-anchor="start" fill="#171c20">Ориентация листа: Rx 0°; затем перенос начала в (1545; -48.3; -48.3) мм повернутой сборки.</text><text x="12" y="258.0" font-family="DejaVu Sans" font-size="3" text-anchor="start" fill="#171c20">Материал / массовая модель: GFRP assumed rho1.85</text><text x="12" y="271" font-family="DejaVu Sans" font-size="3" text-anchor="start" fill="#171c20">Позиция 172 · Кол. 1 · Масса 50.148 г · Тел 1 · Размеры со * — справочные</text><text x="250" y="279" font-family="DejaVu Sans" font-size="2.8" text-anchor="start" fill="#171c20">Утвердил: —  |  Технология: —  |  Допуски: —</text></svg>