<svg xmlns="http://www.w3.org/2000/svg" width="420mm" height="297mm" viewBox="0 0 420 297"><rect width="420" height="297" fill="white"/><rect x="5" y="5" width="410" height="287" fill="none" stroke="#171c20" stroke-width=".3"/><path d="M5.0000,30.0000 L415.0000,30.0000" fill="none" stroke="#171c20" stroke-width="0.25"/><path d="M5.0000,243.0000 L415.0000,243.0000" fill="none" stroke="#171c20" stroke-width="0.25"/><text x="12" y="14" font-family="DejaVu Sans" font-size="5" text-anchor="start" fill="#171c20" font-weight="bold">PLBP-D01-P152</text><text x="408" y="14" font-family="DejaVu Sans" font-size="3" text-anchor="end" fill="#171c20">D01 / DW01 · 01.10.2026</text><text x="12" y="22.0" font-family="DejaVu Sans" font-size="3.6" text-anchor="start" fill="#171c20">Основной борт · корпус концептуального блока</text><text x="12" y="250" font-family="DejaVu Sans" font-size="3.2" text-anchor="start" fill="#171c20" font-weight="bold">ПРОЕКТНЫЙ ЧЕРТЁЖ · НОМИНАЛЬНАЯ ГЕОМЕТРИЯ · НЕ ВЫПУЩЕНО В ПРОИЗВОДСТВО</text><text x="12" y="286" font-family="DejaVu Sans" font-size="3" text-anchor="start" fill="#171c20">PLBP-SG1 · Супер ГИРД | A3: 420 × 297 мм | Размеры: мм | Печатать 100%</text><text x="408" y="286" font-family="DejaVu Sans" font-size="3" text-anchor="end" fill="#171c20">Лист 1/1</text><text x="23" y="44" font-family="DejaVu Sans" font-size="2.8" text-anchor="start" fill="#171c20" font-weight="bold">Вид по −Z · X/Y · М 1:2</text><polyline points="59.7500,95.0000 59.7500,63.0000" fill="none" stroke="#889196" stroke-width=".12" stroke-dasharray="1.5 1"/><polyline points="59.7500,95.0000 107.2500,95.0000" fill="none" stroke="#889196" stroke-width=".12" stroke-dasharray="1.5 1"/><polyline points="59.7500,63.0000 107.2500,63.0000" fill="none" stroke="#889196" stroke-width=".12" stroke-dasharray="1.5 1"/><polyline points="107.2500,95.0000 107.2500,63.0000" fill="none" stroke="#889196" stroke-width=".12" stroke-dasharray="1.5 1"/><polyline points="107.2500,77.0000 107.2500,81.0000" fill="none" stroke="#889196" stroke-width=".12" stroke-dasharray="1.5 1"/><polyline points="107.2500,77.0000 107.2500,81.0000" fill="none" stroke="#889196" stroke-width=".12" stroke-dasharray="1.5 1"/><polyline points="60.7500,94.0000 106.2500,94.0000" fill="none" stroke="#889196" stroke-width=".12" stroke-dasharray="1.5 1"/><polyline points="106.2500,94.0000 106.2500,64.0000" fill="none" stroke="#889196" stroke-width=".12" stroke-dasharray="1.5 1"/><polyline points="106.2500,77.0000 106.2500,81.0000" fill="none" stroke="#889196" stroke-width=".12" stroke-dasharray="1.5 1"/><polyline points="106.2500,77.0000 106.2500,81.0000" fill="none" stroke="#889196" stroke-width=".12" stroke-dasharray="1.5 1"/><polyline points="60.7500,64.0000 106.2500,64.0000" fill="none" stroke="#889196" stroke-width=".12" stroke-dasharray="1.5 1"/><polyline points="60.7500,94.0000 60.7500,64.0000" fill="none" stroke="#889196" stroke-width=".12" stroke-dasharray="1.5 1"/><polyline points="106.2500,77.0000 107.2500,77.0000" fill="none" stroke="#889196" stroke-width=".12" stroke-dasharray="1.5 1"/><polyline points="106.2500,81.0000 107.2500,81.0000" fill="none" stroke="#889196" stroke-width=".12" stroke-dasharray="1.5 1"/><polyline points="106.2500,77.0000 107.2500,77.0000" fill="none" stroke="#889196" stroke-width=".12" stroke-dasharray="1.5 1"/><polyline points="106.2500,81.0000 107.2500,81.0000" fill="none" stroke="#889196" stroke-width=".12" stroke-dasharray="1.5 1"/><polyline points="59.7500,95.0000 59.7500,63.0000" fill="none" stroke="#171c20" stroke-width=".24"/><polyline points="59.7500,95.0000 107.2500,95.0000" fill="none" stroke="#171c20" stroke-width=".24"/><polyline points="59.7500,63.0000 107.2500,63.0000" fill="none" stroke="#171c20" stroke-width=".24"/><polyline points="107.2500,95.0000 107.2500,63.0000" fill="none" stroke="#171c20" stroke-width=".24"/><polyline points="106.2500,94.0000 60.7500,94.0000" fill="none" stroke="#171c20" stroke-width=".24"/><polyline points="106.2500,94.0000 106.2500,64.0000" fill="none" stroke="#171c20" stroke-width=".24"/><polyline points="106.2500,64.0000 60.7500,64.0000" fill="none" stroke="#171c20" stroke-width=".24"/><polyline points="60.7500,94.0000 60.7500,64.0000" fill="none" stroke="#171c20" stroke-width=".24"/><path d="M59.7500,95.0000 L59.7500,100.0000" fill="none" stroke="#171c20" stroke-width="0.15"/><path d="M107.2500,95.0000 L107.2500,100.0000" fill="none" stroke="#171c20" stroke-width="0.15"/><path d="M59.7500,102.0000 L107.2500,102.0000" fill="none" stroke="#171c20" stroke-width="0.18"/><path d="M59.7500,102.0000 L61.7500,101.0000" fill="none" stroke="#171c20" stroke-width="0.18"/><path d="M59.7500,102.0000 L61.7500,103.0000" fill="none" stroke="#171c20" stroke-width="0.18"/><path d="M107.2500,102.0000 L105.2500,101.0000" fill="none" stroke="#171c20" stroke-width="0.18"/><path d="M107.2500,102.0000 L105.2500,103.0000" fill="none" stroke="#171c20" stroke-width="0.18"/><text x="83.5" y="100.2" font-family="DejaVu Sans" font-size="2.8" text-anchor="middle" fill="#171c20">95*</text><path d="M59.7500,63.0000 L55.7500,63.0000" fill="none" stroke="#171c20" stroke-width="0.15"/><path d="M59.7500,95.0000 L55.7500,95.0000" fill="none" stroke="#171c20" stroke-width="0.15"/><path d="M53.7500,63.0000 L53.7500,95.0000" fill="none" stroke="#171c20" stroke-width="0.18"/><path d="M53.7500,63.0000 L52.7500,65.0000" fill="none" stroke="#171c20" stroke-width="0.18"/><path d="M53.7500,63.0000 L54.7500,65.0000" fill="none" stroke="#171c20" stroke-width="0.18"/><path d="M53.7500,95.0000 L52.7500,93.0000" fill="none" stroke="#171c20" stroke-width="0.18"/><path d="M53.7500,95.0000 L54.7500,93.0000" fill="none" stroke="#171c20" stroke-width="0.18"/><text x="51.75" y="79.0" font-family="DejaVu Sans" font-size="2.8" text-anchor="end" fill="#171c20">64*</text><text x="158" y="44" font-family="DejaVu Sans" font-size="2.8" text-anchor="start" fill="#171c20" font-weight="bold">Вид по +Y · X/Z · М 1:1</text><polyline points="171.0000,85.0000 171.0000,73.0000" fill="none" stroke="#889196" stroke-width=".12" stroke-dasharray="1.5 1"/><polyline points="171.0000,73.0000 266.0000,73.0000" fill="none" stroke="#889196" stroke-width=".12" stroke-dasharray="1.5 1"/><polyline points="264.0000,73.0000 173.0000,73.0000" fill="none" stroke="#889196" stroke-width=".12" stroke-dasharray="1.5 1"/><polyline points="264.0000,73.0000 173.0000,73.0000" fill="none" stroke="#889196" stroke-width=".12" stroke-dasharray="1.5 1"/><polyline points="171.0000,85.0000 266.0000,85.0000" fill="none" stroke="#889196" stroke-width=".12" stroke-dasharray="1.5 1"/><polyline points="266.0000,85.0000 266.0000,73.0000" fill="none" stroke="#889196" stroke-width=".12" stroke-dasharray="1.5 1"/><polyline points="266.0000,79.5000 266.0000,74.5000" fill="none" stroke="#889196" stroke-width=".12" stroke-dasharray="1.5 1"/><polyline points="266.0000,79.5000 266.0000,74.5000" fill="none" stroke="#889196" stroke-width=".12" stroke-dasharray="1.5 1"/><polyline points="264.0000,83.0000 264.0000,73.0000" fill="none" stroke="#889196" stroke-width=".12" stroke-dasharray="1.5 1"/><polyline points="173.0000,83.0000 173.0000,73.0000" fill="none" stroke="#889196" stroke-width=".12" stroke-dasharray="1.5 1"/><polyline points="173.0000,83.0000 264.0000,83.0000" fill="none" stroke="#889196" stroke-width=".12" stroke-dasharray="1.5 1"/><polyline points="264.0000,83.0000 264.0000,73.0000" fill="none" stroke="#889196" stroke-width=".12" stroke-dasharray="1.5 1"/><polyline points="264.0000,79.5000 264.0000,74.5000" fill="none" stroke="#889196" stroke-width=".12" stroke-dasharray="1.5 1"/><polyline points="264.0000,79.5000 264.0000,74.5000" fill="none" stroke="#889196" stroke-width=".12" stroke-dasharray="1.5 1"/><polyline points="173.0000,83.0000 173.0000,73.0000" fill="none" stroke="#889196" stroke-width=".12" stroke-dasharray="1.5 1"/><polyline points="173.0000,83.0000 264.0000,83.0000" fill="none" stroke="#889196" stroke-width=".12" stroke-dasharray="1.5 1"/><polyline points="264.0000,79.5000 266.0000,79.5000" fill="none" stroke="#889196" stroke-width=".12" stroke-dasharray="1.5 1"/><polyline points="264.0000,79.5000 266.0000,79.5000" fill="none" stroke="#889196" stroke-width=".12" stroke-dasharray="1.5 1"/><polyline points="264.0000,74.5000 266.0000,74.5000" fill="none" stroke="#889196" stroke-width=".12" stroke-dasharray="1.5 1"/><polyline points="264.0000,74.5000 266.0000,74.5000" fill="none" stroke="#889196" stroke-width=".12" stroke-dasharray="1.5 1"/><polyline points="171.0000,85.0000 171.0000,73.0000" fill="none" stroke="#171c20" stroke-width=".24"/><polyline points="171.0000,85.0000 266.0000,85.0000" fill="none" stroke="#171c20" stroke-width=".24"/><polyline points="266.0000,85.0000 266.0000,73.0000" fill="none" stroke="#171c20" stroke-width=".24"/><polyline points="171.0000,73.0000 266.0000,73.0000" fill="none" stroke="#171c20" stroke-width=".24"/><path d="M171.0000,85.0000 L171.0000,90.0000" fill="none" stroke="#171c20" stroke-width="0.15"/><path d="M266.0000,85.0000 L266.0000,90.0000" fill="none" stroke="#171c20" stroke-width="0.15"/><path d="M171.0000,92.0000 L266.0000,92.0000" fill="none" stroke="#171c20" stroke-width="0.18"/><path d="M171.0000,92.0000 L173.0000,91.0000" fill="none" stroke="#171c20" stroke-width="0.18"/><path d="M171.0000,92.0000 L173.0000,93.0000" fill="none" stroke="#171c20" stroke-width="0.18"/><path d="M266.0000,92.0000 L264.0000,91.0000" fill="none" stroke="#171c20" stroke-width="0.18"/><path d="M266.0000,92.0000 L264.0000,93.0000" fill="none" stroke="#171c20" stroke-width="0.18"/><text x="218.5" y="90.2" font-family="DejaVu Sans" font-size="2.8" text-anchor="middle" fill="#171c20">95*</text><path d="M171.0000,73.0000 L167.0000,73.0000" fill="none" stroke="#171c20" stroke-width="0.15"/><path d="M171.0000,85.0000 L167.0000,85.0000" fill="none" stroke="#171c20" stroke-width="0.15"/><path d="M165.0000,73.0000 L165.0000,85.0000" fill="none" stroke="#171c20" stroke-width="0.18"/><path d="M165.0000,73.0000 L164.0000,75.0000" fill="none" stroke="#171c20" stroke-width="0.18"/><path d="M165.0000,73.0000 L166.0000,75.0000" fill="none" stroke="#171c20" stroke-width="0.18"/><path d="M165.0000,85.0000 L164.0000,83.0000" fill="none" stroke="#171c20" stroke-width="0.18"/><path d="M165.0000,85.0000 L166.0000,83.0000" fill="none" stroke="#171c20" stroke-width="0.18"/><text x="163.0" y="79.0" font-family="DejaVu Sans" font-size="2.8" text-anchor="end" fill="#171c20">12*</text><text x="23" y="134" font-family="DejaVu Sans" font-size="2.8" text-anchor="start" fill="#171c20" font-weight="bold">Вид по −X · Y/Z · М 1:1</text><polyline points="51.5000,175.0000 51.5000,163.0000" fill="none" stroke="#889196" stroke-width=".12" stroke-dasharray="1.5 1"/><polyline points="51.5000,163.0000 115.5000,163.0000" fill="none" stroke="#889196" stroke-width=".12" stroke-dasharray="1.5 1"/><polyline points="115.5000,175.0000 115.5000,163.0000" fill="none" stroke="#889196" stroke-width=".12" stroke-dasharray="1.5 1"/><polyline points="51.5000,175.0000 115.5000,175.0000" fill="none" stroke="#889196" stroke-width=".12" stroke-dasharray="1.5 1"/><polyline points="53.5000,163.0000 113.5000,163.0000" fill="none" stroke="#889196" stroke-width=".12" stroke-dasharray="1.5 1"/><polyline points="53.5000,163.0000 113.5000,163.0000" fill="none" stroke="#889196" stroke-width=".12" stroke-dasharray="1.5 1"/><polyline points="53.5000,173.0000 53.5000,163.0000" fill="none" stroke="#889196" stroke-width=".12" stroke-dasharray="1.5 1"/><polyline points="53.5000,173.0000 53.5000,163.0000" fill="none" stroke="#889196" stroke-width=".12" stroke-dasharray="1.5 1"/><polyline points="53.5000,173.0000 113.5000,173.0000" fill="none" stroke="#889196" stroke-width=".12" stroke-dasharray="1.5 1"/><polyline points="113.5000,173.0000 113.5000,163.0000" fill="none" stroke="#889196" stroke-width=".12" stroke-dasharray="1.5 1"/><polyline points="87.5000,169.5000 79.5000,169.5000" fill="none" stroke="#889196" stroke-width=".12" stroke-dasharray="1.5 1"/><polyline points="87.5000,169.5000 87.5000,164.5000" fill="none" stroke="#889196" stroke-width=".12" stroke-dasharray="1.5 1"/><polyline points="87.5000,164.5000 79.5000,164.5000" fill="none" stroke="#889196" stroke-width=".12" stroke-dasharray="1.5 1"/><polyline points="79.5000,169.5000 79.5000,164.5000" fill="none" stroke="#889196" stroke-width=".12" stroke-dasharray="1.5 1"/><polyline points="113.5000,173.0000 113.5000,163.0000" fill="none" stroke="#889196" stroke-width=".12" stroke-dasharray="1.5 1"/><polyline points="53.5000,173.0000 113.5000,173.0000" fill="none" stroke="#889196" stroke-width=".12" stroke-dasharray="1.5 1"/><polyline points="51.5000,175.0000 51.5000,163.0000" fill="none" stroke="#171c20" stroke-width=".24"/><polyline points="51.5000,163.0000 115.5000,163.0000" fill="none" stroke="#171c20" stroke-width=".24"/><polyline points="115.5000,175.0000 115.5000,163.0000" fill="none" stroke="#171c20" stroke-width=".24"/><polyline points="51.5000,175.0000 115.5000,175.0000" fill="none" stroke="#171c20" stroke-width=".24"/><polyline points="87.5000,169.5000 79.5000,169.5000" fill="none" stroke="#171c20" stroke-width=".24"/><polyline points="87.5000,169.5000 87.5000,164.5000" fill="none" stroke="#171c20" stroke-width=".24"/><polyline points="87.5000,164.5000 79.5000,164.5000" fill="none" stroke="#171c20" stroke-width=".24"/><polyline points="79.5000,169.5000 79.5000,164.5000" fill="none" stroke="#171c20" stroke-width=".24"/><path d="M51.5000,175.0000 L51.5000,180.0000" fill="none" stroke="#171c20" stroke-width="0.15"/><path d="M115.5000,175.0000 L115.5000,180.0000" fill="none" stroke="#171c20" stroke-width="0.15"/><path d="M51.5000,182.0000 L115.5000,182.0000" fill="none" stroke="#171c20" stroke-width="0.18"/><path d="M51.5000,182.0000 L53.5000,181.0000" fill="none" stroke="#171c20" stroke-width="0.18"/><path d="M51.5000,182.0000 L53.5000,183.0000" fill="none" stroke="#171c20" stroke-width="0.18"/><path d="M115.5000,182.0000 L113.5000,181.0000" fill="none" stroke="#171c20" stroke-width="0.18"/><path d="M115.5000,182.0000 L113.5000,183.0000" fill="none" stroke="#171c20" stroke-width="0.18"/><text x="83.5" y="180.2" font-family="DejaVu Sans" font-size="2.8" text-anchor="middle" fill="#171c20">64*</text><path d="M51.5000,163.0000 L47.5000,163.0000" fill="none" stroke="#171c20" stroke-width="0.15"/><path d="M51.5000,175.0000 L47.5000,175.0000" fill="none" stroke="#171c20" stroke-width="0.15"/><path d="M45.5000,163.0000 L45.5000,175.0000" fill="none" stroke="#171c20" stroke-width="0.18"/><path d="M45.5000,163.0000 L44.5000,165.0000" fill="none" stroke="#171c20" stroke-width="0.18"/><path d="M45.5000,163.0000 L46.5000,165.0000" fill="none" stroke="#171c20" stroke-width="0.18"/><path d="M45.5000,175.0000 L44.5000,173.0000" fill="none" stroke="#171c20" stroke-width="0.18"/><path d="M45.5000,175.0000 L46.5000,173.0000" fill="none" stroke="#171c20" stroke-width="0.18"/><text x="43.5" y="169.0" font-family="DejaVu Sans" font-size="2.8" text-anchor="end" fill="#171c20">12*</text><text x="158" y="134" font-family="DejaVu Sans" font-size="2.8" text-anchor="start" fill="#171c20" font-weight="bold">Аксонометрия · М 1:2</text><polyline points="213.0199,182.7784 213.0199,187.6774" fill="none" stroke="#889196" stroke-width=".12" stroke-dasharray="1.5 1"/><polyline points="213.0199,182.7784 190.3925,169.7144" fill="none" stroke="#889196" stroke-width=".12" stroke-dasharray="1.5 1"/><polyline points="213.0199,182.7784 246.6075,163.3866" fill="none" stroke="#889196" stroke-width=".12" stroke-dasharray="1.5 1"/><polyline points="245.1933,164.2031 245.1933,168.2856" fill="none" stroke="#889196" stroke-width=".12" stroke-dasharray="1.5 1"/><polyline points="241.6577,166.2443 245.1933,164.2031" fill="none" stroke="#889196" stroke-width=".12" stroke-dasharray="1.5 1"/><polyline points="245.1933,164.2031 223.9801,151.9556" fill="none" stroke="#889196" stroke-width=".12" stroke-dasharray="1.5 1"/><polyline points="223.9801,151.9556 223.9801,156.0381" fill="none" stroke="#889196" stroke-width=".12" stroke-dasharray="1.5 1"/><polyline points="233.1725,158.6917 233.8796,159.1000" fill="none" stroke="#889196" stroke-width=".12" stroke-dasharray="1.5 1"/><polyline points="233.1725,158.6917 233.1725,160.7330" fill="none" stroke="#889196" stroke-width=".12" stroke-dasharray="1.5 1"/><polyline points="233.1725,160.7330 236.0009,162.3660" fill="none" stroke="#889196" stroke-width=".12" stroke-dasharray="1.5 1"/><polyline points="236.0009,161.5495 236.0009,162.3660" fill="none" stroke="#889196" stroke-width=".12" stroke-dasharray="1.5 1"/><polyline points="191.8067,170.5309 191.8067,174.6134" fill="none" stroke="#889196" stroke-width=".12" stroke-dasharray="1.5 1"/><polyline points="191.8067,170.5309 223.9801,151.9556" fill="none" stroke="#889196" stroke-width=".12" stroke-dasharray="1.5 1"/><polyline points="195.3423,172.5722 191.8067,170.5309" fill="none" stroke="#889196" stroke-width=".12" stroke-dasharray="1.5 1"/><polyline points="233.1725,158.6917 233.8796,158.2835" fill="none" stroke="#889196" stroke-width=".12" stroke-dasharray="1.5 1"/><polyline points="233.1725,160.7330 233.8796,160.3247" fill="none" stroke="#889196" stroke-width=".12" stroke-dasharray="1.5 1"/><polyline points="236.0009,162.3660 236.7080,161.9577" fill="none" stroke="#889196" stroke-width=".12" stroke-dasharray="1.5 1"/><polyline points="213.0199,187.6774 190.3925,174.6134" fill="none" stroke="#171c20" stroke-width=".24"/><polyline points="190.3925,169.7144 190.3925,174.6134" fill="none" stroke="#171c20" stroke-width=".24"/><polyline points="246.6075,163.3866 246.6075,168.2856" fill="none" stroke="#171c20" stroke-width=".24"/><polyline points="213.0199,187.6774 246.6075,168.2856" fill="none" stroke="#171c20" stroke-width=".24"/><polyline points="190.3925,174.6134 223.9801,155.2216" fill="none" stroke="#171c20" stroke-width=".24"/><polyline points="246.6075,168.2856 223.9801,155.2216" fill="none" stroke="#171c20" stroke-width=".24"/><polyline points="245.1933,168.2856 213.0199,186.8609" fill="none" stroke="#171c20" stroke-width=".24"/><polyline points="245.1933,168.2856 223.9801,156.0381" fill="none" stroke="#171c20" stroke-width=".24"/><polyline points="223.9801,156.0381 191.8067,174.6134" fill="none" stroke="#171c20" stroke-width=".24"/><polyline points="213.0199,186.8609 191.8067,174.6134" fill="none" stroke="#171c20" stroke-width=".24"/><polyline points="190.3925,169.7144 223.9801,150.3226" fill="none" stroke="#171c20" stroke-width=".24"/><polyline points="223.9801,150.3226 223.9801,155.2216" fill="none" stroke="#171c20" stroke-width=".24"/><polyline points="246.6075,163.3866 223.9801,150.3226" fill="none" stroke="#171c20" stroke-width=".24"/><polyline points="233.8796,158.2835 236.7080,159.9165" fill="none" stroke="#171c20" stroke-width=".24"/><polyline points="233.8796,158.2835 233.8796,160.3247" fill="none" stroke="#171c20" stroke-width=".24"/><polyline points="233.8796,160.3247 236.7080,161.9577" fill="none" stroke="#171c20" stroke-width=".24"/><polyline points="236.7080,159.9165 236.7080,161.9577" fill="none" stroke="#171c20" stroke-width=".24"/><polyline points="213.0199,182.7784 213.0199,186.8609" fill="none" stroke="#171c20" stroke-width=".24"/><polyline points="213.0199,182.7784 241.6577,166.2443" fill="none" stroke="#171c20" stroke-width=".24"/><polyline points="233.8796,159.1000 236.0009,160.3247" fill="none" stroke="#171c20" stroke-width=".24"/><polyline points="236.0009,160.3247 236.0009,161.5495" fill="none" stroke="#171c20" stroke-width=".24"/><polyline points="213.0199,182.7784 195.3423,172.5722" fill="none" stroke="#171c20" stroke-width=".24"/><polyline points="236.0009,160.3247 236.7080,159.9165" fill="none" stroke="#171c20" stroke-width=".24"/><path d="M288.0000,35.0000 L288.0000,235.0000" fill="none" stroke="#171c20" stroke-width="0.18"/><text x="295" y="42.0" font-family="DejaVu Sans" font-size="3.2" text-anchor="start" fill="#171c20">Проектная деталь · материал и допуски уточнить</text><text x="295" y="50.64" font-family="DejaVu Sans" font-size="2.8" text-anchor="start" fill="#171c20">1. Размеры номинальные из CAD D01. Общие допуски, шероховатость и</text><text x="295" y="54.7" font-family="DejaVu Sans" font-size="2.8" text-anchor="start" fill="#171c20">посадки не назначены.</text><text x="295" y="61.76" font-family="DejaVu Sans" font-size="2.8" text-anchor="start" fill="#171c20">2. Масса расчётная; плотность либо назначенная масса взяты из</text><text x="295" y="65.82" font-family="DejaVu Sans" font-size="2.8" text-anchor="start" fill="#171c20">ведомости.</text><text x="295" y="72.88" font-family="DejaVu Sans" font-size="2.8" text-anchor="start" fill="#171c20">3. Контуры получены проекцией BRep. Перед изготовлением: выпуск</text><text x="295" y="76.94" font-family="DejaVu Sans" font-size="2.8" text-anchor="start" fill="#171c20">допусков, технологии и проверка креплений.</text><text x="15" y="224" font-family="DejaVu Sans" font-size="3.2" text-anchor="start" fill="#171c20">Локальный габарит X × Y × Z: 95 × 64 × 12 мм</text><text x="15" y="233.0" font-family="DejaVu Sans" font-size="2.7" text-anchor="start" fill="#171c20">Ориентация листа: Rx 0°; затем перенос начала в (850; -32; 8) мм повернутой сборки.</text><text x="12" y="258.0" font-family="DejaVu Sans" font-size="3" text-anchor="start" fill="#171c20">Материал / массовая модель: PETG prototype rho1.27</text><text x="12" y="271" font-family="DejaVu Sans" font-size="3" text-anchor="start" fill="#171c20">Позиция 152 · Кол. 1 · Масса 23.216 г · Тел 1 · Размеры со * — справочные</text><text x="250" y="279" font-family="DejaVu Sans" font-size="2.8" text-anchor="start" fill="#171c20">Утвердил: —  |  Технология: —  |  Допуски: —</text></svg>